<svg version="1.1" id="Layer_1" xmlns="http://www.w3.org/2000/svg" xmlns:xlink="http://www.w3.org/1999/xlink" x="0px" y="0px"
	 width="100%" viewBox="0 0 740 740" enable-background="new 0 0 740 740" xml:space="preserve">
<path fill="#FEFEFE" opacity="1.000000" stroke="none" 
	d="
M442.000000,741.000000 
	C294.666656,741.000000 147.833328,741.000000 1.000000,741.000000 
	C1.000000,494.333344 1.000000,247.666672 1.000000,1.000000 
	C247.666672,1.000000 494.333344,1.000000 741.000000,1.000000 
	C741.000000,247.666672 741.000000,494.333344 741.000000,741.000000 
	C641.500000,741.000000 542.000000,741.000000 442.000000,741.000000 
M303.703888,192.992737 
	C304.166016,192.347443 304.628113,191.702148 305.510956,190.837631 
	C305.777344,190.643051 305.954773,190.386871 306.694427,189.904465 
	C309.415558,186.915894 312.136658,183.927322 315.405792,180.549210 
	C321.239288,174.607529 327.072784,168.665848 333.933411,162.780563 
	C334.210083,164.344543 334.726440,165.908264 334.728149,167.472549 
	C334.764160,200.337601 334.736359,233.202728 334.745667,266.067841 
	C334.746246,268.041199 334.952148,270.014526 334.957642,272.921539 
	C334.991974,283.950653 335.026306,294.979736 334.786011,306.708527 
	C334.880646,309.467987 334.975281,312.227478 334.957275,315.919983 
	C334.939117,366.135986 334.911743,416.351990 334.912079,466.567993 
	C334.912140,474.709076 335.035065,482.850159 334.875763,491.802612 
	C334.924713,493.202789 334.973663,494.602966 334.771362,496.578888 
	C334.848358,498.052887 334.925354,499.526886 334.896088,501.932831 
	C334.960236,529.619446 335.024384,557.306091 334.865997,585.478333 
	C334.907135,585.651550 334.948303,585.824768 334.753906,586.357056 
	C334.842773,586.903137 334.931671,587.449158 334.896881,588.495361 
	C334.930756,588.663757 334.964600,588.832092 334.750549,589.643311 
	C334.854279,591.424988 334.957977,593.206726 334.922089,595.917725 
	C334.789795,602.196716 336.330963,609.184143 334.056610,614.556274 
	C331.762573,619.974792 325.682129,623.790588 321.259003,628.307007 
	C320.909637,628.663757 320.544708,629.005249 320.191376,629.358154 
	C313.284515,636.256897 306.378296,643.156189 298.942932,650.583862 
	C313.655426,664.299133 327.291687,678.264465 342.251923,690.627747 
	C359.466614,704.854126 381.945038,705.335205 399.355255,691.447998 
	C414.903076,679.046326 428.882629,664.678467 444.001831,650.766357 
	C434.268433,640.776367 425.125916,631.392761 415.883240,621.412903 
	C415.241028,620.978271 414.598785,620.543701 413.510010,619.595459 
	C409.388794,616.876282 408.283081,613.144226 408.314087,608.192810 
	C408.496063,579.142578 408.309021,550.090027 408.608612,520.382202 
	C408.493073,517.904175 408.377533,515.426086 408.413208,512.027771 
	C408.366058,485.032318 408.318939,458.036835 408.629730,430.345337 
	C408.487457,427.217590 408.345215,424.089874 408.381653,420.043976 
	C408.403778,363.487427 408.427429,306.930878 408.439575,250.374344 
	C408.439880,248.882751 408.314301,247.391144 408.568085,245.328583 
	C408.459564,244.920654 408.351074,244.512741 408.405487,243.383072 
	C408.324371,242.900497 408.243256,242.417938 408.488403,241.347687 
	C408.395264,240.926697 408.302124,240.505722 408.427826,239.158218 
	C408.378693,214.121811 408.329529,189.085388 408.686829,163.497253 
	C409.412506,163.401733 410.138214,163.306198 411.192383,163.782455 
	C415.493835,168.171249 419.795288,172.560059 424.219147,177.583603 
	C425.468048,178.741394 426.716949,179.899185 428.296234,181.631348 
	C431.171021,184.437042 434.045807,187.242737 437.073578,190.643707 
	C437.730408,191.068161 438.387238,191.492615 439.315979,192.353104 
	C439.595276,192.542480 439.874603,192.731857 440.301941,193.523438 
	C441.162170,194.390640 442.022369,195.257858 443.007904,196.028214 
	C443.007904,196.028214 442.871582,196.107330 442.919952,197.037262 
	C443.218536,199.674683 443.777191,202.312057 443.777740,204.949539 
	C443.791534,272.942444 443.738373,340.935394 443.715485,408.928314 
	C443.692932,475.921875 443.653320,542.915527 443.811096,609.908691 
	C443.817688,612.713562 445.748138,615.513916 446.927948,618.694824 
	C446.927948,618.694824 447.275238,618.904053 447.324188,619.542175 
	C448.529083,620.719360 449.733948,621.896484 450.997833,623.002441 
	C450.997833,623.002441 450.926208,623.061035 451.084595,623.710571 
	C453.424683,625.707886 455.764740,627.705200 458.453491,630.157898 
	C458.929901,630.463379 459.406342,630.768799 460.039978,631.646667 
	C462.030975,630.434326 464.021942,629.221985 466.000000,628.000000 
	C466.000000,628.000000 466.009644,628.012878 466.625000,627.866333 
	C467.411316,626.907898 468.197632,625.949463 469.530853,624.607178 
	C485.680664,608.291626 501.845398,591.990845 517.940735,575.621765 
	C518.847351,574.699646 519.705322,573.216553 519.706604,571.993652 
	C519.730896,549.341064 519.621399,526.688416 519.805115,503.234344 
	C519.744141,501.832916 519.683167,500.431488 519.882629,498.259247 
	C519.779663,497.464600 519.676697,496.669922 519.738281,494.967743 
	C519.744080,487.471832 519.780090,479.975830 519.749878,472.480072 
	C519.671204,453.000366 519.563477,433.520844 519.752930,413.209229 
	C519.665649,411.171967 519.578308,409.134705 519.804443,406.606567 
	C519.701477,406.061279 519.598450,405.515991 519.635742,404.143433 
	C519.620056,360.479553 519.604309,316.815674 520.131714,273.099243 
	C520.640076,273.220398 521.148376,273.341553 522.003601,274.013123 
	C527.025024,278.996429 532.046448,283.979706 537.213074,289.602753 
	C538.669189,290.888428 540.125305,292.174133 541.906494,294.035736 
	C547.567749,299.706726 553.228943,305.377686 559.040588,311.651642 
	C559.672180,312.149292 560.303711,312.646973 561.137512,313.712372 
	C562.028625,314.503632 562.919739,315.294861 563.947083,316.708435 
	C564.592590,317.223907 565.238159,317.739380 566.134460,318.860840 
	C568.965942,321.630798 571.797363,324.400787 574.806213,327.805389 
	C575.473022,328.345520 576.139771,328.885620 577.053101,330.012909 
	C579.193054,332.090759 581.332947,334.168610 583.681763,336.887299 
	C585.149902,338.199890 586.618042,339.512482 588.370422,341.437714 
	C597.167969,350.491882 605.965576,359.546051 614.980591,368.824005 
	C613.839050,370.066803 612.883057,371.181976 611.850342,372.220978 
	C590.239380,393.963623 568.660645,415.738678 546.963013,437.394592 
	C543.200745,441.149689 541.492188,445.112854 541.557617,450.615936 
	C541.938171,482.610962 541.930359,514.610596 542.065125,546.608582 
	C542.069641,547.685181 542.195007,548.761230 542.344788,551.096008 
	C546.915466,546.902100 550.788147,543.602844 554.374512,540.017151 
	C578.531311,515.864868 602.641296,491.665771 626.738525,467.454132 
	C646.720215,447.377594 667.172180,427.736267 686.459961,407.012604 
	C701.321716,391.044556 706.042725,371.752716 698.940002,350.488220 
	C695.060120,338.872375 686.406189,330.614197 678.042969,322.244751 
	C602.068237,246.213425 526.102478,170.173203 450.062286,94.207397 
	C434.508179,78.668526 419.138275,62.890503 402.790741,48.217342 
	C388.793976,35.654186 371.962219,32.315384 353.854523,38.667473 
	C343.685913,42.234573 336.035645,49.482838 328.597778,56.943123 
	C266.373718,119.354706 204.157516,181.774155 141.902435,244.154770 
	C113.539116,272.575256 85.422325,301.253082 56.583145,329.183777 
	C32.678009,352.335876 35.226273,381.105652 51.927700,401.907684 
	C58.263218,409.798706 65.528702,416.976440 72.676567,424.175201 
	C88.630615,440.242798 104.777351,456.119080 120.935196,472.650665 
	C121.653328,473.245728 122.371460,473.840820 123.327896,474.894257 
	C123.486610,474.961060 123.645332,475.027893 123.935616,475.715820 
	C124.589806,476.214386 125.244003,476.712952 126.134392,477.757782 
	C127.017189,478.540314 127.899979,479.322815 128.934753,480.718872 
	C129.593292,481.208191 130.251816,481.697479 131.155884,482.774597 
	C132.696915,484.218811 134.237946,485.663055 135.922272,487.714325 
	C136.977600,488.628387 138.032928,489.542419 139.414276,491.064484 
	C141.184738,492.754517 142.955185,494.444550 144.896545,496.749451 
	C145.557297,497.249115 146.218048,497.748749 147.135223,498.854584 
	C154.061615,505.824951 160.931961,512.852112 167.927826,519.752075 
	C177.875610,529.563538 187.915665,539.281494 198.075470,549.697510 
	C198.691574,550.083923 199.307678,550.470337 199.923782,550.856750 
	C200.125168,550.214417 200.326538,549.572144 200.775360,548.156738 
	C200.771194,547.085938 200.767029,546.015137 201.205215,544.270203 
	C201.282410,511.905243 201.395782,479.540253 201.331940,447.175568 
	C201.328674,445.525421 199.801468,443.878326 198.648315,441.774872 
	C195.387314,438.486969 192.124924,435.200439 188.865555,431.910889 
	C178.963455,421.916962 169.062546,411.921906 158.962784,401.279358 
	C156.674316,399.114380 154.385849,396.949432 151.837692,394.179199 
	C143.367691,385.555084 134.897690,376.930939 126.027069,367.898926 
	C158.225525,335.855652 190.039948,304.194550 222.548264,272.558014 
	C222.902237,272.854095 223.256195,273.150208 223.533783,274.206909 
	C223.569916,290.749023 223.606064,307.291168 223.312347,324.642426 
	C223.443710,327.376801 223.575089,330.111206 223.555481,333.702850 
	C223.579514,385.655212 223.595215,437.607574 223.638123,489.559937 
	C223.643478,496.044891 223.792847,502.529694 223.610687,509.869568 
	C223.713715,512.243591 223.816742,514.617554 223.692520,517.906067 
	C223.740173,535.261780 223.787842,552.617432 223.511292,570.535583 
	C223.959457,572.092285 224.407608,573.648926 224.894455,575.613770 
	C224.894455,575.613770 225.131561,575.948120 225.058334,576.576477 
	C225.664536,577.112000 226.270737,577.647583 227.184814,578.743103 
	C228.726578,580.204895 230.268356,581.666687 231.951462,583.762756 
	C232.931961,584.562866 233.912460,585.362976 235.236923,586.700806 
	C236.777786,588.164429 238.318649,589.628052 239.990341,591.738525 
	C241.304688,592.860474 242.619034,593.982422 244.255173,595.643188 
	C245.482986,596.774719 246.710815,597.906311 248.050110,599.672363 
	C249.018463,600.466675 249.986832,601.260925 250.997269,601.998657 
	C250.997269,601.998657 250.944397,602.046082 251.119827,602.692383 
	C257.093689,608.437134 263.067566,614.181946 269.407135,620.486694 
	C273.329865,624.300476 277.252594,628.114258 281.192993,632.484802 
	C282.149323,632.333923 283.105621,632.182983 284.517242,631.610413 
	C285.372711,630.449158 286.228149,629.287903 287.661926,627.944031 
	C288.054382,627.274170 288.446838,626.604248 289.290344,625.534119 
	C289.893860,624.739685 290.497375,623.945312 291.679108,622.964905 
	C292.054108,622.284363 292.429108,621.603821 293.254120,620.444885 
	C294.543396,618.689392 295.832703,616.933899 297.787109,614.868774 
	C298.470032,611.341614 299.747681,607.814880 299.750000,604.287292 
	C299.837982,472.144531 299.808228,340.001740 299.794952,207.858917 
	C299.794586,204.213821 299.800842,200.568710 300.175323,196.519592 
	C300.491730,196.074768 300.808167,195.629959 301.735016,195.061157 
	C302.192810,194.405945 302.650604,193.750748 303.002441,193.004059 
	C303.002441,193.004059 303.096527,193.107773 303.703888,192.992737 
z"/>
<path fill="#010101" opacity="1.000000" stroke="none" 
	d="
M415.983398,622.009216 
	C425.125916,631.392761 434.268433,640.776367 444.001831,650.766357 
	C428.882629,664.678467 414.903076,679.046326 399.355255,691.447998 
	C381.945038,705.335205 359.466614,704.854126 342.251923,690.627747 
	C327.291687,678.264465 313.655426,664.299133 298.942932,650.583862 
	C306.378296,643.156189 313.284515,636.256897 320.191376,629.358154 
	C320.544708,629.005249 320.909637,628.663757 321.259003,628.307007 
	C325.682129,623.790588 331.762573,619.974792 334.056610,614.556274 
	C336.330963,609.184143 334.789795,602.196716 335.207336,595.280640 
	C335.946564,593.067444 336.400543,591.491333 337.134979,589.798462 
	C337.620972,589.129944 337.826569,588.578125 338.331451,587.889343 
	C340.257416,587.963074 341.884094,588.173767 343.516327,588.385254 
	C345.148712,586.160034 346.807129,583.899414 348.465515,581.638733 
	C347.802277,582.292908 347.139038,582.947021 346.475800,583.601135 
	C345.323212,581.990723 344.170654,580.380310 343.061005,578.829895 
	C341.132629,580.320557 338.110565,582.656677 335.088562,584.992737 
	C335.024384,557.306091 334.960236,529.619446 335.289551,501.354980 
	C336.059998,499.475311 336.436981,498.173492 337.072693,496.827209 
	C337.549591,496.521667 337.767792,496.260590 338.345093,496.033630 
	C339.499603,496.231964 340.632812,496.816223 341.035675,496.492279 
	C343.684662,494.362061 345.891968,491.546906 348.775604,489.871033 
	C355.748749,485.818451 355.582001,475.106415 364.680450,473.179169 
	C365.157806,473.078094 365.490631,472.205292 365.852417,471.666046 
	C366.697754,470.405914 367.519745,469.130127 367.779572,468.733429 
	C366.624939,467.424774 365.499939,466.149658 364.374908,464.874542 
	C364.053925,464.253326 363.732910,463.632080 363.411926,463.010864 
	C358.431183,468.634583 353.687012,474.494080 348.393250,479.805786 
	C344.321136,483.891632 339.557404,487.288177 335.101227,490.991241 
	C335.035065,482.850159 334.912140,474.709076 334.912079,466.567993 
	C334.911743,416.351990 334.939117,366.135986 335.239014,315.289978 
	C335.954102,314.068604 336.387482,313.477203 337.187805,312.919128 
	C339.165070,311.217255 340.775330,309.482086 342.320923,307.816589 
	C340.767639,306.725494 339.213715,305.633942 337.686462,304.561157 
	C337.105682,305.748322 336.557587,306.868622 335.963135,307.705811 
	C335.631409,306.951416 335.346008,306.480133 335.060608,306.008850 
	C335.026306,294.979736 334.991974,283.950653 335.265259,272.133759 
	C335.666534,269.528656 335.833038,267.711670 335.842499,265.893921 
	C335.923828,250.270538 335.976746,234.647018 336.425415,219.020020 
	C337.878143,218.008163 338.943634,216.999786 340.004578,215.995712 
	C340.000000,216.000000 339.991333,216.009232 340.357086,216.002380 
	C344.991760,215.916412 343.347839,213.161987 343.333038,211.023819 
	C347.789642,212.623108 348.925873,209.737244 350.460358,206.865967 
	C352.144348,203.715012 354.015106,200.501740 356.496246,198.002258 
	C357.892181,196.595978 360.684143,196.575485 363.403076,195.764984 
	C361.235168,193.747406 360.005249,192.602814 358.765991,191.449493 
	C354.052521,195.769531 349.606201,200.304291 344.656525,204.199493 
	C341.924530,206.349472 342.020416,208.372681 342.687012,210.963379 
	C338.793549,207.419342 337.769104,211.464142 335.900330,212.612900 
	C335.881256,196.863663 335.892242,181.587967 335.890656,166.312256 
	C335.890503,164.987473 335.807251,163.662689 335.762604,162.337906 
	C334.810486,162.466660 333.858398,162.595413 332.906281,162.724167 
	C327.072784,168.665848 321.239288,174.607529 314.792755,180.752853 
	C311.467560,183.994019 308.755402,187.031540 306.043243,190.069061 
	C305.954773,190.386871 305.777344,190.643051 304.964355,190.946457 
	C303.977325,191.739441 303.536926,192.423615 303.096527,193.107773 
	C303.096527,193.107773 303.002441,193.004059 302.719482,193.065338 
	C301.999207,193.812805 301.561920,194.498978 301.124603,195.185150 
	C300.808167,195.629959 300.491730,196.074768 299.604279,196.818665 
	C298.716858,198.687286 298.124146,200.256760 298.123779,201.826370 
	C298.106323,278.433319 298.124664,355.040283 298.205078,431.647186 
	C298.209930,436.279083 298.096619,440.519196 293.051208,442.819824 
	C291.856171,443.364746 291.117249,444.909912 289.969025,446.223114 
	C291.441162,447.549500 292.608185,448.600983 293.494415,449.399506 
	C294.839294,448.091339 295.863495,447.095062 296.887695,446.098816 
	C297.315338,447.580322 298.110260,449.060516 298.115601,450.543549 
	C298.195312,472.692810 298.206207,494.842499 298.151825,516.991882 
	C298.132507,524.867554 299.846344,533.287598 291.667236,539.089111 
	C289.302551,540.874146 287.170074,542.479492 285.442719,544.441467 
	C285.239319,544.672485 287.261658,546.863098 288.439880,548.388184 
	C289.761047,544.878845 290.871735,541.928589 292.294342,538.945740 
	C293.971802,538.758240 295.337280,538.603394 297.367950,538.373108 
	C297.634338,540.424500 298.128510,542.484009 298.134277,544.544861 
	C298.192139,565.150513 298.210938,585.756592 298.123047,606.362061 
	C298.110504,609.302185 297.471222,612.239685 297.122009,615.178406 
	C295.832703,616.933899 294.543396,618.689392 292.704559,620.720093 
	C291.803619,621.713806 291.452271,622.432373 291.100891,623.150879 
	C290.497375,623.945312 289.893860,624.739685 288.737579,625.762329 
	C287.817719,626.702576 287.450653,627.414612 287.083588,628.126648 
	C286.228149,629.287903 285.372711,630.449158 283.928284,631.795410 
	C282.617981,631.963013 281.896667,631.945496 281.175323,631.927979 
	C277.252594,628.114258 273.329865,624.300476 269.217957,619.864746 
	C263.000641,613.510498 256.972534,607.778259 250.944397,602.046082 
	C250.944397,602.046082 250.997269,601.998657 250.972076,601.684387 
	C249.944138,600.592712 248.941376,599.815247 247.938629,599.037842 
	C246.710815,597.906311 245.482986,596.774719 244.096008,595.024658 
	C242.577713,593.301270 241.218613,592.196472 239.859512,591.091675 
	C238.318649,589.628052 236.777786,588.164429 235.057526,586.080383 
	C233.855469,584.682800 232.832809,583.905579 231.810120,583.128418 
	C230.268356,581.666687 228.726578,580.204895 227.056885,578.138672 
	C226.329819,577.005493 225.730698,576.476807 225.131561,575.948120 
	C225.131561,575.948120 224.894455,575.613770 224.962875,575.014099 
	C224.632690,572.934021 224.234100,571.453552 223.835495,569.973145 
	C223.787842,552.617432 223.740173,535.261780 224.206757,517.448364 
	C226.277542,516.587952 229.291367,518.255066 228.433426,514.331482 
	C228.368698,514.035400 229.488541,513.416931 230.114319,513.043030 
	C236.021408,509.513306 241.607269,505.772308 243.508865,498.464142 
	C243.890472,496.997589 245.731506,494.592712 246.457748,494.743805 
	C251.938522,495.884369 252.325256,489.903564 256.553833,488.650085 
	C254.307343,486.896759 252.610458,485.572388 251.619614,484.799042 
	C248.450668,487.487335 245.566696,489.662201 243.008453,492.169403 
	C239.407516,495.698456 234.869247,498.640625 233.994781,503.573212 
	C232.708633,504.113403 231.522568,504.488190 230.460052,505.083466 
	C228.230789,506.332428 226.066467,507.697296 223.875488,509.014587 
	C223.792847,502.529694 223.643478,496.044891 223.638123,489.559937 
	C223.595215,437.607574 223.579514,385.655212 223.979996,333.204468 
	C225.505356,331.248138 226.606186,329.790192 227.648987,328.409119 
	C226.339432,326.913574 224.990829,325.373444 223.642212,323.833282 
	C223.606064,307.291168 223.569916,290.749023 223.734055,273.530640 
	C223.633667,272.334381 223.333008,271.814362 223.032349,271.294373 
	C222.639694,271.707428 222.247025,272.120453 221.854370,272.533478 
	C190.039948,304.194550 158.225525,335.855652 126.027069,367.898926 
	C134.897690,376.930939 143.367691,385.555084 151.926941,394.879272 
	C151.102142,396.872955 150.358154,398.342407 149.239563,399.424622 
	C146.691910,401.889313 142.956360,403.902283 146.683655,408.001465 
	C145.016449,407.461761 143.710297,406.932983 142.543655,406.460693 
	C137.868042,410.968994 133.260559,415.322784 128.756592,419.781158 
	C124.816833,423.681122 125.055420,424.695526 129.558533,427.122314 
	C131.538483,425.240875 133.379364,423.672333 134.999329,421.901703 
	C136.641205,420.107117 138.064743,418.112732 139.817581,415.912537 
	C142.627029,417.013550 145.206802,415.130524 148.349945,408.929260 
	C150.310867,406.151398 151.916519,403.426971 153.324966,401.037140 
	C155.402985,401.354095 157.282074,401.640717 159.161148,401.927307 
	C169.062546,411.921906 178.963455,421.916962 188.865555,431.910889 
	C192.124924,435.200439 195.387314,438.486969 198.743896,442.323608 
	C198.898300,443.920135 198.957108,444.967926 198.647705,446.015350 
	C195.992065,447.532410 193.391541,448.736328 191.487747,450.637848 
	C188.322021,453.799835 185.852356,457.669342 182.627441,460.758514 
	C179.307129,463.939056 175.434235,466.542755 171.341873,469.761627 
	C173.089066,471.716553 174.231354,472.994659 175.135406,474.006195 
	C178.581360,471.190918 181.135208,468.828400 183.958817,466.851074 
	C191.422150,461.624695 196.998047,455.117371 199.274063,446.283997 
	C199.688919,448.226471 199.921494,449.868866 199.922943,451.511475 
	C199.948761,480.913269 199.932755,510.315094 199.985107,539.716797 
	C199.988205,541.459778 200.492050,543.201843 200.762848,544.944336 
	C200.767029,546.015137 200.771194,547.085938 200.324371,548.535034 
	C199.221024,548.955383 198.568665,548.997375 197.916290,549.039368 
	C187.915665,539.281494 177.875610,529.563538 167.927826,519.752075 
	C160.931961,512.852112 154.061615,505.824951 147.005539,498.187988 
	C146.159119,497.059113 145.442383,496.596832 144.725647,496.134583 
	C142.955185,494.444550 141.184738,492.754517 139.256134,490.420593 
	C137.991638,488.886871 136.885300,487.997101 135.778961,487.107300 
	C134.237946,485.663055 132.696915,484.218811 131.027573,482.124756 
	C130.193771,481.018372 129.488266,480.561859 128.782776,480.105316 
	C127.899979,479.322815 127.017189,478.540314 126.020340,477.129120 
	C125.205551,476.031860 124.504799,475.563293 123.804047,475.094696 
	C123.645332,475.027893 123.486610,474.961060 123.212204,474.341370 
	C122.346207,473.216736 121.595894,472.645020 120.845589,472.073303 
	C104.777351,456.119080 88.630615,440.242798 72.676567,424.175201 
	C65.528702,416.976440 58.263218,409.798706 51.927700,401.907684 
	C35.226273,381.105652 32.678009,352.335876 56.583145,329.183777 
	C85.422325,301.253082 113.539116,272.575256 141.902435,244.154770 
	C204.157516,181.774155 266.373718,119.354706 328.597778,56.943123 
	C336.035645,49.482838 343.685913,42.234573 353.854523,38.667473 
	C371.962219,32.315384 388.793976,35.654186 402.790741,48.217342 
	C419.138275,62.890503 434.508179,78.668526 450.062286,94.207397 
	C526.102478,170.173203 602.068237,246.213425 678.042969,322.244751 
	C686.406189,330.614197 695.060120,338.872375 698.940002,350.488220 
	C706.042725,371.752716 701.321716,391.044556 686.459961,407.012604 
	C667.172180,427.736267 646.720215,447.377594 626.738525,467.454132 
	C602.641296,491.665771 578.531311,515.864868 554.374512,540.017151 
	C550.788147,543.602844 546.915466,546.902100 542.344788,551.096008 
	C542.195007,548.761230 542.069641,547.685181 542.065125,546.608582 
	C541.930359,514.610596 541.938171,482.610962 541.557617,450.615936 
	C541.492188,445.112854 543.200745,441.149689 546.963013,437.394592 
	C568.660645,415.738678 590.239380,393.963623 611.850342,372.220978 
	C612.883057,371.181976 613.839050,370.066803 614.980591,368.824005 
	C605.965576,359.546051 597.167969,350.491882 588.414551,340.836548 
	C589.963928,338.829895 591.469177,337.424377 592.988647,336.007843 
	C593.002869,335.996826 593.028931,335.971527 593.397217,335.966064 
	C595.004822,335.256866 596.239685,334.545074 597.484192,333.850647 
	C603.629578,330.421539 603.288574,320.730286 611.546814,319.263580 
	C612.106628,319.164124 612.480347,318.011017 612.938660,317.346497 
	C613.782898,316.122406 614.625610,314.897217 614.628906,314.892456 
	C613.491943,313.437866 612.525696,312.201721 611.508606,310.900513 
	C611.371277,311.262604 611.291016,312.372223 610.695007,312.905640 
	C605.148132,317.869659 599.540283,322.766754 593.892700,327.616455 
	C590.471802,330.554077 586.949646,333.373810 583.472900,336.246460 
	C581.332947,334.168610 579.193054,332.090759 576.949158,329.335083 
	C576.106445,328.161743 575.367676,327.666229 574.628845,327.170715 
	C571.797363,324.400787 568.965942,321.630798 566.019043,318.198486 
	C565.206055,317.052765 564.508484,316.569458 563.810852,316.086121 
	C562.919739,315.294861 562.028625,314.503632 561.032104,313.082642 
	C560.247925,311.984802 559.569031,311.516754 558.890198,311.048676 
	C553.228943,305.377686 547.567749,299.706726 541.966675,293.429077 
	C543.241882,292.209045 544.456787,291.595703 545.623291,291.006805 
	C544.487305,287.730865 543.161682,285.815338 539.892273,288.577087 
	C539.279480,289.094727 538.025818,288.853821 537.067932,288.962982 
	C532.046448,283.979706 527.025024,278.996429 521.890381,273.380524 
	C520.827576,272.325165 519.877991,271.902374 518.928467,271.479584 
	C519.148499,272.036987 519.368591,272.594391 519.588623,273.151794 
	C519.604309,316.815674 519.620056,360.479553 519.192200,404.530762 
	C518.500732,404.946320 518.252808,404.974579 517.661499,405.045624 
	C515.941650,406.759125 514.565063,408.429840 513.188538,410.100586 
	C515.281433,411.414154 517.374390,412.727692 519.467285,414.041229 
	C519.563477,433.520844 519.671204,453.000366 519.749878,472.480072 
	C519.780090,479.975830 519.744080,487.471832 519.330933,495.419952 
	C518.607849,496.594940 518.292114,497.317749 517.764587,498.300964 
	C514.217712,501.445282 510.784180,504.224060 507.569824,507.236694 
	C502.187714,512.281128 496.945374,517.474609 491.124115,523.108704 
	C493.682892,524.812622 495.335754,525.913269 495.809570,526.228760 
	C499.662384,522.952026 502.755554,520.321411 506.158783,517.427063 
	C506.154938,517.418030 505.800598,516.584351 505.427368,515.706238 
	C506.802185,515.517456 508.548859,515.803223 509.147705,515.104858 
	C511.809143,512.000977 514.066345,508.553772 516.649475,505.376923 
	C517.251770,504.636169 518.557800,504.467621 519.540039,504.035797 
	C519.621399,526.688416 519.730896,549.341064 519.706604,571.993652 
	C519.705322,573.216553 518.847351,574.699646 517.940735,575.621765 
	C501.845398,591.990845 485.680664,608.291626 468.920105,624.808716 
	C467.542816,626.011108 466.776245,627.012024 466.009644,628.012878 
	C466.009644,628.012878 466.000000,628.000000 465.657166,628.017090 
	C463.503784,629.047607 461.693268,630.060913 459.882751,631.074219 
	C459.406342,630.768799 458.929901,630.463379 458.252075,629.599792 
	C455.675842,627.048157 453.301025,625.054565 450.926208,623.061035 
	C450.926208,623.061035 450.997833,623.002441 450.984924,622.702515 
	C449.739777,621.236450 448.507507,620.070251 447.275238,618.904053 
	C447.275238,618.904053 446.927948,618.694824 446.888184,618.102417 
	C446.244415,614.992249 445.180542,612.485596 445.119720,609.954773 
	C444.908142,601.152893 444.877777,592.337585 445.143677,583.538391 
	C445.230255,580.673523 446.435455,577.842407 447.467285,574.928467 
	C452.567230,570.216675 457.328918,565.572327 462.042603,560.974854 
	C460.687164,559.862793 459.252228,558.685486 457.977936,557.639954 
	C453.699707,561.401062 449.444946,565.141479 445.142975,568.423218 
	C445.113007,537.662476 445.130249,507.360565 445.485901,477.081848 
	C447.174988,477.982849 448.525635,478.860596 450.040009,479.844757 
	C451.762329,475.080841 459.001678,474.877563 459.053406,468.682709 
	C462.658234,468.952545 469.199188,463.062134 470.401917,458.924225 
	C471.123322,456.442352 471.638458,452.926270 476.059204,453.577728 
	C477.187256,453.743927 478.755768,452.271729 479.805511,451.232666 
	C480.823944,450.224518 481.435822,448.805634 482.197815,447.611694 
	C480.894348,446.681152 479.355225,445.582336 477.626038,444.347870 
	C474.474335,450.151459 466.512634,451.906464 464.928131,458.756134 
	C463.719940,459.349091 462.232544,459.742554 461.189026,460.647705 
	C455.779297,465.340454 450.482941,470.163818 445.116943,474.477783 
	C445.082642,415.706177 445.076080,357.398499 445.086823,299.090820 
	C445.087128,297.429718 445.272034,295.768646 445.679840,294.028259 
	C449.523010,292.027344 453.057159,290.105743 456.542389,288.210754 
	C454.535553,286.662109 453.115814,285.566528 452.377533,284.996796 
	C449.785370,286.411621 447.487274,287.665924 445.146729,288.458649 
	C445.104279,259.576630 445.104279,231.156204 445.104279,203.382172 
	C448.026642,201.257004 450.457001,199.489655 452.946716,197.679108 
	C451.474365,194.872086 450.388367,190.607147 446.193359,195.745834 
	C445.691498,196.360580 444.007599,196.010315 442.871582,196.107330 
	C442.871582,196.107330 443.007904,196.028214 442.990051,195.736893 
	C442.032745,194.604126 441.093323,193.762680 440.153900,192.921234 
	C439.874603,192.731857 439.595276,192.542480 439.152954,191.811462 
	C438.300171,190.862701 437.610352,190.455566 436.920563,190.048431 
	C434.045807,187.242737 431.171021,184.437042 428.132751,181.003204 
	C426.678406,179.232986 425.387573,178.090927 424.096741,176.948853 
	C419.795288,172.560059 415.493835,168.171249 411.027252,163.146103 
	C410.022247,162.110641 409.182404,161.711548 408.342529,161.312454 
	C408.321808,162.224625 408.301086,163.136810 408.280396,164.048981 
	C408.329529,189.085388 408.378693,214.121811 407.959717,239.576981 
	C406.620544,239.182159 405.749481,238.368561 405.288330,237.937836 
	C403.771271,239.252975 402.346985,240.338898 401.098236,241.598785 
	C397.697113,245.030167 394.370148,248.535095 390.684143,252.089935 
	C388.287933,254.810791 386.221344,257.452606 383.777344,260.067200 
	C380.807922,262.093475 378.200317,264.127655 375.627563,266.205048 
	C371.848083,269.256836 372.151123,270.776947 375.992889,272.380188 
	C378.398743,271.010223 380.269989,269.944702 381.392670,269.305420 
	C382.953522,267.502533 384.088898,266.191101 385.501801,264.559052 
	C385.373108,263.750610 385.143005,262.305511 385.253906,260.912292 
	C387.438293,262.813965 389.220734,262.627411 390.974640,260.822052 
	C392.848358,258.893402 394.923126,257.033752 393.342163,253.977905 
	C394.612457,254.074966 396.311218,254.355667 396.331818,254.262939 
	C397.270233,250.046066 400.437622,247.955658 403.939667,246.049500 
	C403.998077,245.994553 404.107361,245.877136 404.521362,245.877747 
	C406.039398,245.885406 407.143402,245.892487 408.247437,245.899536 
	C408.314301,247.391144 408.439880,248.882751 408.439575,250.374344 
	C408.427429,306.930878 408.403778,363.487427 407.982666,420.664001 
	C403.035095,425.640076 403.048615,425.831818 408.271820,431.041382 
	C408.318939,458.036835 408.366058,485.032318 408.049561,512.700073 
	C404.610596,516.921204 401.535309,520.470093 398.530396,523.937805 
	C399.368835,525.649536 400.193054,527.332275 400.661743,529.046631 
	C398.807251,528.170654 397.308258,527.263000 394.833496,525.764465 
	C393.486938,528.677368 392.252991,531.346619 390.645874,534.075562 
	C385.100494,535.087341 383.264618,537.399902 383.713531,542.046448 
	C382.101318,542.152588 380.792786,542.227295 379.484253,542.301941 
	C379.475647,542.798645 379.467010,543.295349 379.458405,543.792053 
	C380.641724,544.755066 381.825073,545.718079 383.469879,547.056702 
	C383.692963,544.863831 383.839508,543.423645 384.336609,541.944458 
	C388.838837,544.186707 388.309601,536.576599 392.220245,538.768860 
	C391.738770,536.904175 391.361420,535.442688 391.319244,534.076538 
	C392.957153,534.581604 394.907501,535.737732 395.448029,535.268799 
	C397.538696,533.454956 399.179840,531.123047 401.309387,528.853149 
	C402.615784,526.933167 403.399689,524.982971 404.656830,523.411133 
	C405.509460,522.345154 407.026520,521.810547 408.246399,521.038269 
	C408.309021,550.090027 408.496063,579.142578 408.314087,608.192810 
	C408.283081,613.144226 409.388794,616.876282 413.756531,620.166565 
	C414.663147,621.161499 415.323273,621.585327 415.983398,622.009216 
M282.598175,550.904846 
	C283.779358,550.904846 284.960541,550.904846 287.395996,550.904846 
	C284.928558,548.915222 283.596161,547.840820 281.920715,546.489868 
	C281.623962,547.629028 281.432526,548.364014 280.482391,549.058350 
	C275.294312,553.564514 270.106232,558.070740 264.799561,562.679932 
	C266.715393,564.799316 268.197174,566.438477 269.873627,568.293030 
	C270.554565,566.201904 270.657166,563.901489 271.518646,563.569336 
	C276.437592,561.672607 279.696533,557.748901 283.668671,554.886292 
	C283.045868,553.188293 282.558075,551.858398 282.598175,550.904846 
M407.313843,142.072296 
	C402.454010,146.618362 397.594208,151.164429 392.448151,155.978271 
	C394.373138,157.709595 395.638733,158.847870 396.463715,159.589844 
	C401.653076,155.413879 406.320587,151.657852 410.786896,148.063736 
	C410.042175,145.955902 409.516785,144.468842 409.615204,143.304779 
	C412.416687,145.935806 414.729431,145.147614 416.371277,142.081619 
	C417.886505,139.252121 419.084564,136.252762 420.528717,133.095566 
	C421.933685,133.739975 423.063751,134.258286 424.185638,134.772858 
	C426.025818,132.329330 427.728699,130.068146 429.431549,127.806953 
	C428.975983,128.282303 428.520416,128.757660 428.064819,129.233002 
	C427.275940,127.436661 426.487030,125.640320 425.824768,124.132309 
	C422.292450,127.184967 418.884796,129.808395 415.872467,132.826416 
	C413.034729,135.669479 410.613617,138.928406 407.313843,142.072296 
M225.715485,235.073486 
	C231.797653,237.418320 234.518402,232.000519 235.734848,228.764328 
	C238.373505,221.744614 244.887436,219.486511 249.531296,215.002075 
	C247.811783,213.786469 246.223572,212.663696 244.791626,211.651398 
	C240.071716,215.995163 235.176682,220.127899 230.750900,224.713531 
	C228.118927,227.440567 226.225266,230.880157 223.257568,233.999695 
	C218.987518,234.980774 217.017014,237.831009 216.783752,241.465485 
	C215.520569,241.824341 214.476212,242.121033 213.431854,242.417709 
	C214.576447,244.181335 215.721039,245.944977 216.305466,246.845474 
	C220.021011,243.704361 223.217178,241.002350 226.523697,238.207047 
	C226.076996,237.270615 225.534653,236.133698 225.715485,235.073486 
M372.744293,649.980286 
	C380.331421,647.062561 382.825134,639.857849 386.456177,633.275452 
	C393.668823,637.888855 390.482758,627.898560 394.952423,628.303894 
	C393.227966,626.707581 391.994598,625.565857 390.830688,624.488464 
	C382.736877,632.336365 374.925903,640.303467 366.661499,647.768494 
	C362.067749,651.917969 361.889465,653.858826 367.252289,656.411438 
	C368.843475,654.261597 370.419281,652.132568 372.000000,650.000000 
	C372.000000,650.000000 372.003662,649.995117 372.744293,649.980286 
M176.022232,287.481781 
	C176.139359,287.757965 176.256470,288.034149 176.373581,288.310333 
	C176.497910,288.223663 176.622253,288.136963 176.746582,288.050293 
	C176.497726,287.700195 176.248856,287.350098 176.088257,286.392700 
	C178.319824,285.050873 180.551407,283.709045 182.960922,282.260223 
	C180.930847,280.836731 179.436127,279.788635 177.626312,278.519592 
	C167.248474,288.769165 156.633850,299.252594 145.637650,310.112885 
	C147.052490,311.731842 148.183182,313.025665 148.856125,313.795685 
	C152.139252,311.070770 154.745804,309.204437 156.995392,306.977509 
	C161.461700,302.556152 165.742813,297.947083 170.077087,293.393250 
	C172.079712,291.289154 174.027405,289.132721 176.022232,287.481781 
M96.000000,367.000000 
	C96.000000,367.000000 96.006424,367.004913 96.078041,366.397491 
	C100.254623,365.523163 103.213219,363.485504 104.262527,358.972137 
	C104.593414,357.548889 106.006233,356.164124 107.264709,355.212494 
	C110.192703,352.998505 113.328049,351.058716 117.189583,348.463257 
	C114.121269,347.063141 112.413368,346.283783 110.670242,345.488342 
	C100.050575,355.911591 89.522881,366.244537 78.447777,377.114777 
	C80.532547,378.734161 82.147804,379.988861 82.943787,380.607147 
	C86.835960,376.635468 90.044128,373.361755 93.252304,370.088013 
	C93.432106,370.154358 93.611908,370.220703 93.791718,370.287018 
	C94.526169,369.189209 95.260628,368.091400 96.000000,367.000000 
M573.741272,448.993713 
	C578.606445,447.940613 580.632996,443.935547 583.034729,440.231140 
	C584.868347,437.402893 586.700500,434.458496 589.094055,432.146423 
	C590.884399,430.417114 593.568604,429.613190 595.629700,428.516937 
	C594.036987,426.395996 592.883972,424.860535 590.798279,422.083038 
	C582.167480,431.269287 573.801086,440.081116 565.578125,449.024933 
	C564.320679,450.392639 563.726440,452.370087 563.032043,453.676849 
	C561.829102,454.232788 560.659546,454.773315 559.489990,455.313812 
	C560.759216,457.013794 562.028503,458.713776 562.805298,459.754150 
	C565.971191,456.658295 568.369873,454.383179 570.678040,452.019653 
	C571.558838,451.117798 572.232178,450.013367 573.000000,449.000000 
	C573.000000,449.000000 573.000000,448.998779 573.741272,448.993713 
M360.735016,102.983528 
	C365.520081,100.915710 368.939026,97.776611 370.494324,92.494629 
	C371.062561,90.564720 373.535309,87.597412 374.786713,87.763252 
	C378.709412,88.283134 379.088928,85.845490 380.225952,83.429955 
	C380.669586,82.487549 382.162872,82.039223 383.178040,81.365845 
	C382.197479,81.863380 381.216919,82.360909 380.236359,82.858437 
	C379.744934,81.160683 379.253540,79.462936 378.826843,77.988792 
	C376.925720,79.497536 374.532166,81.088081 372.508118,83.058273 
	C364.873260,90.490059 357.427887,98.116966 349.769806,105.524254 
	C345.896606,109.270607 346.158844,111.085045 350.537231,113.069160 
	C352.059784,111.813156 353.400848,110.953735 354.423981,109.809959 
	C356.377289,107.626305 358.149445,105.280602 360.000000,103.000000 
	C360.000000,103.000000 360.003662,102.996552 360.735016,102.983528 
M500.738861,242.988663 
	C504.052338,239.827835 508.405090,237.200668 510.380981,233.352936 
	C512.278320,229.658096 512.346313,228.145538 516.964478,227.312836 
	C518.029480,227.120819 519.008240,225.789566 519.779236,224.791428 
	C520.781372,223.494064 521.536194,222.005707 522.342590,220.689163 
	C521.014954,219.453171 519.678711,218.209122 518.395081,217.014069 
	C516.717590,218.865280 515.375916,220.499207 513.877563,221.973907 
	C505.699585,230.022537 497.634247,238.195251 489.218811,245.989105 
	C484.716034,250.159241 488.239868,251.617752 490.946411,253.951080 
	C491.494629,252.224167 492.111115,249.598404 492.349884,249.632324 
	C496.250092,250.186203 496.107635,244.519028 499.753937,244.878983 
	C499.774323,244.880997 499.916107,243.652985 500.000000,243.000000 
	C500.000000,243.000000 499.998779,243.001221 500.738861,242.988663 
M357.999115,385.159851 
	C358.729797,384.433289 359.771973,383.835266 360.134552,382.956757 
	C361.376862,379.946930 367.671082,380.799713 365.790741,375.501404 
	C369.975525,375.573151 375.115753,371.022583 377.078278,366.184265 
	C377.934357,364.073822 379.823547,362.382416 381.243530,360.500671 
	C383.688873,362.952972 384.206268,360.097778 384.950684,358.943939 
	C386.080109,357.193359 386.781403,355.166534 387.664551,353.257050 
	C388.236572,353.827301 388.808563,354.397522 389.380554,354.967773 
	C387.825531,353.812134 386.270538,352.656525 384.750061,351.526550 
	C381.034729,354.690796 377.140076,357.658813 373.657379,361.049866 
	C367.290833,367.248901 361.126801,373.658966 354.990753,380.088348 
	C354.143005,380.976562 353.214874,383.212433 353.566772,383.557678 
	C354.681671,384.651520 356.385681,385.144897 357.999115,385.159851 
M491.291199,337.753876 
	C482.772156,346.059692 474.253143,354.365540 465.283783,363.110413 
	C467.593689,364.861450 469.167786,366.054749 470.829285,367.314270 
	C471.579102,365.456146 471.730530,363.862671 472.601227,363.158203 
	C474.940918,361.265198 477.633148,359.812408 480.048676,358.002380 
	C480.312622,357.804596 479.686310,356.418732 479.456818,355.520966 
	C482.938263,355.532623 489.795288,349.403809 490.738586,346.415802 
	C491.431580,344.220764 492.782440,341.931519 494.495392,340.433502 
	C496.866882,338.359406 499.853546,336.988708 503.326782,334.856384 
	C500.509186,333.061188 499.170135,332.208008 497.411133,331.087280 
	C495.491669,333.186554 493.642181,335.209320 491.291199,337.753876 
M290.706940,166.201447 
	C287.471130,168.978424 284.049500,171.580292 281.141144,174.665894 
	C280.483643,175.363480 281.424316,177.815689 282.002533,179.316422 
	C282.260040,179.984756 283.442596,180.296661 284.668549,181.058044 
	C284.668549,179.240097 284.668549,178.020218 284.668549,175.745651 
	C288.743805,178.665161 288.363525,174.403915 290.097656,173.374527 
	C296.563080,169.536636 301.698761,164.719742 305.008240,157.800003 
	C305.923889,155.885544 306.900726,152.206314 310.905212,153.709503 
	C311.273834,153.847885 312.261719,152.545685 312.857178,151.825684 
	C313.971222,150.478745 315.008331,149.068192 316.074615,147.687790 
	C314.787720,146.774414 313.212463,145.656418 312.302704,145.010727 
	C311.241028,145.750137 310.201721,146.273422 309.416382,147.052643 
	C303.236481,153.184509 297.105133,159.365280 290.706940,166.201447 
M266.554871,375.012024 
	C262.196472,379.584930 257.806702,384.128540 253.496460,388.746368 
	C251.959503,390.393005 250.805756,392.432739 249.142792,393.918976 
	C245.806335,396.900940 242.239792,399.625427 238.703125,402.509247 
	C240.745438,404.769409 242.220840,406.402191 243.487030,407.803436 
	C246.780243,403.653748 249.718002,399.951935 252.999161,395.817413 
	C261.431641,395.088226 262.888245,386.313446 266.865845,380.207703 
	C273.698517,384.339691 271.815369,375.406433 275.995239,375.361145 
	C273.857513,373.799622 272.278442,372.646179 271.109924,371.792664 
	C269.688660,372.775269 268.409668,373.659515 266.554871,375.012024 
M264.231750,293.612122 
	C264.389099,292.550812 264.472931,290.580994 264.714508,290.561462 
	C270.274017,290.111786 270.878815,282.973389 276.152954,282.095886 
	C276.644287,282.014130 276.792999,279.873199 277.100830,278.688354 
	C279.669800,277.542572 282.216888,275.814270 283.542542,273.411987 
	C285.099731,270.590149 285.803864,267.537750 289.950806,267.611572 
	C290.821198,267.627045 291.781708,266.398132 292.582672,265.621002 
	C293.868500,264.373444 295.055878,263.024384 296.298035,261.704193 
	C294.893005,260.372986 293.332458,258.894470 292.406525,258.017181 
	C290.205261,259.493713 288.170746,260.439423 286.678986,261.928772 
	C278.629181,269.965851 270.962982,278.405334 262.643646,286.146301 
	C258.688324,289.826599 260.400208,291.513763 264.231750,293.612122 
M637.250793,385.974609 
	C638.071350,384.653259 638.891968,383.331940 639.718506,382.001007 
	C640.924561,381.444550 642.937439,381.097961 644.005920,379.905304 
	C646.458862,377.167328 648.141113,373.711304 650.705383,371.107178 
	C654.356995,367.398865 658.518860,364.193054 662.453796,360.780365 
	C660.986206,359.718140 659.455383,358.610168 656.918396,356.773926 
	C647.058533,367.790955 637.084656,378.935333 626.913208,390.300507 
	C627.471191,390.800323 628.873352,392.056396 629.781921,392.870239 
	C632.354065,390.282959 634.450439,388.174225 637.250793,385.974609 
M473.442413,176.571487 
	C474.309906,175.950439 475.177368,175.329391 475.668732,174.977615 
	C473.939484,173.703537 472.438110,172.597351 470.343567,171.054108 
	C465.446777,175.696304 459.466919,181.365250 453.183044,187.322433 
	C455.831360,189.485168 457.314789,190.696579 459.102173,192.156219 
	C464.836792,187.984329 465.294220,178.972412 473.442413,176.571487 
M558.000122,271.612518 
	C556.825745,272.489563 555.543945,273.255127 554.497070,274.264404 
	C551.294373,277.352112 551.687012,278.580322 555.014709,279.830688 
	C557.619873,276.819489 559.905762,274.177338 562.739197,270.902344 
	C561.033997,271.016449 559.789185,271.099762 558.000122,271.612518 
M546.807190,283.349060 
	C546.714050,283.218170 546.645996,283.046387 546.519897,282.969391 
	C546.419434,282.907928 546.248352,282.962097 546.108582,282.964935 
	C546.429016,284.840424 546.749512,286.715881 547.070007,288.591339 
	C547.593445,288.446075 548.116882,288.300842 548.640320,288.155579 
	C548.071838,286.751404 547.503357,285.347229 546.807190,283.349060 
M565.791504,269.421844 
	C565.158325,269.006378 564.525208,268.590881 563.892090,268.175415 
	C563.692871,268.624634 563.493713,269.073883 563.294556,269.523132 
	C564.143555,269.691315 564.992554,269.859497 565.791504,269.421844 
M548.575195,281.346863 
	C549.470154,281.771118 550.365112,282.195404 551.260071,282.619690 
	C551.387634,282.239349 551.515198,281.859039 551.642761,281.478729 
	C550.609558,281.252167 549.576294,281.025635 548.575195,281.346863 
M564.764221,265.495270 
	C564.955383,265.216949 565.146545,264.938629 565.337769,264.660309 
	C565.055176,264.837402 564.772522,265.014496 564.764221,265.495270 
M296.486603,541.518555 
	C296.486603,541.518555 296.477417,541.475769 296.486603,541.518555 
M561.531921,267.462494 
	C561.531921,267.462494 561.559326,267.519165 561.531921,267.462494 
M567.446167,267.492859 
	C567.446167,267.492859 567.509766,267.465698 567.446167,267.492859 
M550.495544,278.550415 
	C550.495544,278.550415 550.476746,278.502258 550.495544,278.550415 
M552.564941,284.502014 
	C552.564941,284.502014 552.477539,284.551178 552.564941,284.502014 
z"/>
<path fill="#454545" opacity="1.000000" stroke="none" 
	d="
M297.454559,615.023560 
	C297.471222,612.239685 298.110504,609.302185 298.123047,606.362061 
	C298.210938,585.756592 298.192139,565.150513 298.134277,544.544861 
	C298.128510,542.484009 297.634338,540.424500 297.367950,538.373108 
	C295.337280,538.603394 293.971802,538.758240 292.303162,538.956055 
	C292.000000,538.999084 292.020905,539.016357 292.020905,539.016357 
	C299.846344,533.287598 298.132507,524.867554 298.151825,516.991882 
	C298.206207,494.842499 298.195312,472.692810 298.115601,450.543549 
	C298.110260,449.060516 297.315338,447.580322 296.887695,446.098816 
	C295.863495,447.095062 294.839294,448.091339 293.494415,449.399506 
	C292.608185,448.600983 291.441162,447.549500 289.969025,446.223114 
	C291.117249,444.909912 291.856171,443.364746 293.051208,442.819824 
	C298.096619,440.519196 298.209930,436.279083 298.205078,431.647186 
	C298.124664,355.040283 298.106323,278.433319 298.123779,201.826370 
	C298.124146,200.256760 298.716858,198.687286 299.418610,197.020691 
	C299.800842,200.568710 299.794586,204.213821 299.794952,207.858917 
	C299.808228,340.001740 299.837982,472.144531 299.750000,604.287292 
	C299.747681,607.814880 298.470032,611.341614 297.454559,615.023560 
M297.141296,442.750946 
	C297.241638,443.001465 297.341980,443.251984 297.442352,443.502472 
	C297.562317,443.415741 297.795319,443.305054 297.782837,443.246399 
	C297.727417,442.984894 297.601776,442.738251 297.141296,442.750946 
z"/>
<path fill="#414141" opacity="1.000000" stroke="none" 
	d="
M445.370850,294.107574 
	C445.272034,295.768646 445.087128,297.429718 445.086823,299.090820 
	C445.076080,357.398499 445.082642,415.706177 445.068207,474.829742 
	C445.082275,476.116638 445.114899,476.587646 445.147522,477.058655 
	C445.130249,507.360565 445.113007,537.662476 445.103943,568.811035 
	C445.784454,571.437073 446.456726,573.216431 447.129028,574.995850 
	C446.435455,577.842407 445.230255,580.673523 445.143677,583.538391 
	C444.877777,592.337585 444.908142,601.152893 445.119720,609.954773 
	C445.180542,612.485596 446.244415,614.992249 446.815369,617.913208 
	C445.748138,615.513916 443.817688,612.713562 443.811096,609.908691 
	C443.653320,542.915527 443.692932,475.921875 443.715485,408.928314 
	C443.738373,340.935394 443.791534,272.942444 443.777740,204.949539 
	C443.777191,202.312057 443.218536,199.674683 442.895752,196.572296 
	C444.007599,196.010315 445.691498,196.360580 446.193359,195.745834 
	C450.388367,190.607147 451.474365,194.872086 452.946716,197.679108 
	C450.457001,199.489655 448.026642,201.257004 445.104279,203.382172 
	C445.104279,231.156204 445.104279,259.576630 445.099548,288.891327 
	C445.186859,291.226257 445.278839,292.666931 445.370850,294.107574 
M448.292175,196.076126 
	C448.175507,196.674423 448.058868,197.272705 447.942200,197.870987 
	C448.366791,197.313400 448.791412,196.755814 449.527069,195.955612 
	C449.484741,195.742340 449.442413,195.529053 449.400085,195.315781 
	C449.207245,195.479172 449.014435,195.642548 448.292175,196.076126 
z"/>
<path fill="#111111" opacity="1.000000" stroke="none" 
	d="
M334.988495,491.396912 
	C339.557404,487.288177 344.321136,483.891632 348.393250,479.805786 
	C353.687012,474.494080 358.431183,468.634583 363.411926,463.010864 
	C363.732910,463.632080 364.053925,464.253326 364.374908,464.874542 
	C365.499939,466.149658 366.624939,467.424774 367.779572,468.733429 
	C367.519745,469.130127 366.697754,470.405914 365.852417,471.666046 
	C365.490631,472.205292 365.157806,473.078094 364.680450,473.179169 
	C355.582001,475.106415 355.748749,485.818451 348.775604,489.871033 
	C345.891968,491.546906 343.684662,494.362061 341.035675,496.492279 
	C340.632812,496.816223 339.499603,496.231964 338.353271,496.034454 
	C338.002350,496.001129 338.001923,496.014740 337.962036,495.713196 
	C337.506378,495.095978 337.090546,494.780334 336.674713,494.464691 
	C336.439240,494.997162 336.203766,495.529602 335.731018,496.060669 
	C335.493774,496.059235 335.022583,496.003143 335.022583,496.003143 
	C334.973663,494.602966 334.924713,493.202789 334.988495,491.396912 
z"/>
<path fill="#111111" opacity="1.000000" stroke="none" 
	d="
M223.743103,509.442078 
	C226.066467,507.697296 228.230789,506.332428 230.460052,505.083466 
	C231.522568,504.488190 232.708633,504.113403 233.994781,503.573212 
	C234.869247,498.640625 239.407516,495.698456 243.008453,492.169403 
	C245.566696,489.662201 248.450668,487.487335 251.619614,484.799042 
	C252.610458,485.572388 254.307343,486.896759 256.553833,488.650085 
	C252.325256,489.903564 251.938522,495.884369 246.457748,494.743805 
	C245.731506,494.592712 243.890472,496.997589 243.508865,498.464142 
	C241.607269,505.772308 236.021408,509.513306 230.114319,513.043030 
	C229.488541,513.416931 228.368698,514.035400 228.433426,514.331482 
	C229.291367,518.255066 226.277542,516.587952 224.320404,516.991089 
	C223.816742,514.617554 223.713715,512.243591 223.743103,509.442078 
z"/>
<path fill="#1B1B1B" opacity="1.000000" stroke="none" 
	d="
M592.974487,336.018860 
	C591.469177,337.424377 589.963928,338.829895 588.272461,340.530212 
	C586.618042,339.512482 585.149902,338.199890 583.577332,336.566895 
	C586.949646,333.373810 590.471802,330.554077 593.892700,327.616455 
	C599.540283,322.766754 605.148132,317.869659 610.695007,312.905640 
	C611.291016,312.372223 611.371277,311.262604 611.508606,310.900513 
	C612.525696,312.201721 613.491943,313.437866 614.628906,314.892456 
	C614.625610,314.897217 613.782898,316.122406 612.938660,317.346497 
	C612.480347,318.011017 612.106628,319.164124 611.546814,319.263580 
	C603.288574,320.730286 603.629578,330.421539 597.484192,333.850647 
	C596.239685,334.545074 595.004822,335.256866 593.387878,335.720856 
	C592.876648,335.205414 592.743103,334.929718 592.609558,334.654022 
	C592.731201,335.108978 592.852844,335.563904 592.974487,336.018860 
z"/>
<path fill="#454545" opacity="1.000000" stroke="none" 
	d="
M333.419861,162.752365 
	C333.858398,162.595413 334.810486,162.466660 335.762604,162.337906 
	C335.807251,163.662689 335.890503,164.987473 335.890656,166.312256 
	C335.892242,181.587967 335.881256,196.863663 335.898438,213.032974 
	C335.961548,215.625565 335.999847,217.324539 336.038147,219.023529 
	C335.976746,234.647018 335.923828,250.270538 335.842499,265.893921 
	C335.833038,267.711670 335.666534,269.528656 335.317688,271.666931 
	C334.952148,270.014526 334.746246,268.041199 334.745667,266.067841 
	C334.736359,233.202728 334.764160,200.337601 334.728149,167.472549 
	C334.726440,165.908264 334.210083,164.344543 333.419861,162.752365 
z"/>
<path fill="#121212" opacity="1.000000" stroke="none" 
	d="
M519.672607,503.635071 
	C518.557800,504.467621 517.251770,504.636169 516.649475,505.376923 
	C514.066345,508.553772 511.809143,512.000977 509.147705,515.104858 
	C508.548859,515.803223 506.802185,515.517456 505.427368,515.706238 
	C505.800598,516.584351 506.154938,517.418030 506.158783,517.427063 
	C502.755554,520.321411 499.662384,522.952026 495.809570,526.228760 
	C495.335754,525.913269 493.682892,524.812622 491.124115,523.108704 
	C496.945374,517.474609 502.187714,512.281128 507.569824,507.236694 
	C510.784180,504.224060 514.217712,501.445282 517.989990,498.391357 
	C518.825623,498.490906 519.223877,498.760468 519.622192,499.030060 
	C519.683167,500.431488 519.744141,501.832916 519.672607,503.635071 
z"/>
<path fill="#212121" opacity="1.000000" stroke="none" 
	d="
M199.015930,446.015717 
	C198.957108,444.967926 198.898300,443.920135 198.911652,442.551086 
	C199.801468,443.878326 201.328674,445.525421 201.331940,447.175568 
	C201.395782,479.540253 201.282410,511.905243 200.984039,544.607300 
	C200.492050,543.201843 199.988205,541.459778 199.985107,539.716797 
	C199.932755,510.315094 199.948761,480.913269 199.922943,451.511475 
	C199.921494,449.868866 199.688919,448.226471 199.281952,446.291992 
	C199.000000,446.000000 199.015930,446.015717 199.015930,446.015717 
z"/>
<path fill="#333333" opacity="1.000000" stroke="none" 
	d="
M391.013794,252.010864 
	C394.370148,248.535095 397.697113,245.030167 401.098236,241.598785 
	C402.346985,240.338898 403.771271,239.252975 405.288330,237.937836 
	C405.749481,238.368561 406.620544,239.182159 407.850281,240.040237 
	C408.302124,240.505722 408.395264,240.926697 407.987122,241.678619 
	C407.129333,242.398285 406.772797,242.787018 406.416260,243.175751 
	C407.025024,243.485443 407.633789,243.795135 408.242554,244.104828 
	C408.351074,244.512741 408.459564,244.920654 408.407776,245.614075 
	C407.143402,245.892487 406.039398,245.885406 404.431641,245.717865 
	C403.797058,245.521255 403.666229,245.485123 403.535400,245.448975 
	C403.650696,245.667465 403.765991,245.885956 403.881256,246.104462 
	C400.437622,247.955658 397.270233,250.046066 396.331818,254.262939 
	C396.311218,254.355667 394.612457,254.074966 393.348572,253.984528 
	C393.000580,254.000595 393.013092,254.013275 393.003113,253.675690 
	C392.323944,252.887268 391.654724,252.436417 390.992249,251.992188 
	C390.999023,251.998810 391.013794,252.010880 391.013794,252.010864 
z"/>
<path fill="#111111" opacity="1.000000" stroke="none" 
	d="
M334.977264,585.235535 
	C338.110565,582.656677 341.132629,580.320557 343.061005,578.829895 
	C344.170654,580.380310 345.323212,581.990723 346.475800,583.601135 
	C347.139038,582.947021 347.802277,582.292908 348.465515,581.638733 
	C346.807129,583.899414 345.148712,586.160034 343.516327,588.385254 
	C341.884094,588.173767 340.257416,587.963074 338.157837,587.725525 
	C337.419708,588.219360 337.154480,588.739990 336.572693,589.227783 
	C335.836914,589.130127 335.417664,589.065308 334.998413,589.000488 
	C334.964600,588.832092 334.930756,588.663757 335.164276,588.091431 
	C335.284271,587.124329 335.136902,586.561218 334.989502,585.998047 
	C334.948303,585.824768 334.907135,585.651550 334.977264,585.235535 
z"/>
<path fill="#171717" opacity="1.000000" stroke="none" 
	d="
M147.044693,408.012421 
	C142.956360,403.902283 146.691910,401.889313 149.239563,399.424622 
	C150.358154,398.342407 151.102142,396.872955 152.056793,395.181885 
	C154.385849,396.949432 156.674316,399.114380 159.061966,401.603333 
	C157.282074,401.640717 155.402985,401.354095 153.324966,401.037140 
	C151.916519,403.426971 150.310867,406.151398 148.248932,408.717072 
	C147.604950,408.291931 147.355637,408.109955 147.044693,408.012421 
z"/>
<path fill="#414141" opacity="1.000000" stroke="none" 
	d="
M408.427490,520.710205 
	C407.026520,521.810547 405.509460,522.345154 404.656830,523.411133 
	C403.399689,524.982971 402.615784,526.933167 401.315765,528.861450 
	C401.001251,529.000610 401.017273,529.015015 401.017273,529.015015 
	C400.193054,527.332275 399.368835,525.649536 398.530396,523.937805 
	C401.535309,520.470093 404.610596,516.921204 407.973938,513.160156 
	C408.377533,515.426086 408.493073,517.904175 408.427490,520.710205 
z"/>
<path fill="#454545" opacity="1.000000" stroke="none" 
	d="
M251.032120,602.369263 
	C256.972534,607.778259 263.000641,613.510498 269.035095,619.584717 
	C263.067566,614.181946 257.093689,608.437134 251.032120,602.369263 
z"/>
<path fill="#111111" opacity="1.000000" stroke="none" 
	d="
M519.610107,413.625244 
	C517.374390,412.727692 515.281433,411.414154 513.188538,410.100586 
	C514.565063,408.429840 515.941650,406.759125 517.713135,405.323425 
	C518.569031,406.071472 519.030029,406.584473 519.490967,407.097443 
	C519.578308,409.134705 519.665649,411.171967 519.610107,413.625244 
z"/>
<path fill="#414141" opacity="1.000000" stroke="none" 
	d="
M408.450775,430.693359 
	C403.048615,425.831818 403.035095,425.640076 407.893311,421.123047 
	C408.345215,424.089874 408.487457,427.217590 408.450775,430.693359 
z"/>
<path fill="#3F3F3F" opacity="1.000000" stroke="none" 
	d="
M537.140503,289.282867 
	C538.025818,288.853821 539.279480,289.094727 539.892273,288.577087 
	C543.161682,285.815338 544.487305,287.730865 545.623291,291.006805 
	C544.456787,291.595703 543.241882,292.209045 541.804199,293.141113 
	C540.125305,292.174133 538.669189,290.888428 537.140503,289.282867 
z"/>
<path fill="#454545" opacity="1.000000" stroke="none" 
	d="
M223.477280,324.237854 
	C224.990829,325.373444 226.339432,326.913574 227.648987,328.409119 
	C226.606186,329.790192 225.505356,331.248138 224.055481,332.775818 
	C223.575089,330.111206 223.443710,327.376801 223.477280,324.237854 
z"/>
<path fill="#454545" opacity="1.000000" stroke="none" 
	d="
M306.368835,189.986755 
	C308.755402,187.031540 311.467560,183.994019 314.518738,180.947632 
	C312.136658,183.927322 309.415558,186.915894 306.368835,189.986755 
z"/>
<path fill="#414141" opacity="1.000000" stroke="none" 
	d="
M451.005402,623.385803 
	C453.301025,625.054565 455.675842,627.048157 458.077759,629.372070 
	C455.764740,627.705200 453.424683,625.707886 451.005402,623.385803 
z"/>
<path fill="#454545" opacity="1.000000" stroke="none" 
	d="
M334.923309,306.358704 
	C335.346008,306.480133 335.631409,306.951416 335.937225,308.073364 
	C336.245361,310.111298 336.533081,311.498566 336.820801,312.885834 
	C336.387482,313.477203 335.954102,314.068604 335.295349,314.823456 
	C334.975281,312.227478 334.880646,309.467987 334.923309,306.358704 
z"/>
<path fill="#414141" opacity="1.000000" stroke="none" 
	d="
M459.961365,631.360474 
	C461.693268,630.060913 463.503784,629.047607 465.663605,628.021973 
	C464.021942,629.221985 462.030975,630.434326 459.961365,631.360474 
z"/>
<path fill="#454545" opacity="1.000000" stroke="none" 
	d="
M334.896973,496.291016 
	C335.022583,496.003143 335.493774,496.059235 335.938293,496.110687 
	C336.382782,496.162140 336.799805,496.248993 336.794617,496.404846 
	C336.789459,496.560699 336.813995,496.871643 336.813995,496.871643 
	C336.436981,498.173492 336.059998,499.475311 335.342651,500.889038 
	C334.925354,499.526886 334.848358,498.052887 334.896973,496.291016 
z"/>
<path fill="#454545" opacity="1.000000" stroke="none" 
	d="
M334.874481,589.321899 
	C335.417664,589.065308 335.836914,589.130127 336.558228,589.389709 
	C336.860260,589.584473 336.854553,589.915283 336.854553,589.915283 
	C336.400543,591.491333 335.946564,593.067444 335.277100,594.815918 
	C334.957977,593.206726 334.854279,591.424988 334.874481,589.321899 
z"/>
<path fill="#454545" opacity="1.000000" stroke="none" 
	d="
M239.924927,591.415100 
	C241.218613,592.196472 242.577713,593.301270 243.935089,594.755249 
	C242.619034,593.982422 241.304688,592.860474 239.924927,591.415100 
z"/>
<path fill="#454545" opacity="1.000000" stroke="none" 
	d="
M223.673401,570.254395 
	C224.234100,571.453552 224.632690,572.934021 224.943542,574.810059 
	C224.407608,573.648926 223.959457,572.092285 223.673401,570.254395 
z"/>
<path fill="#414141" opacity="1.000000" stroke="none" 
	d="
M447.299713,619.223145 
	C448.507507,620.070251 449.739777,621.236450 450.955444,622.738159 
	C449.733948,621.896484 448.529083,620.719360 447.299713,619.223145 
z"/>
<path fill="#414141" opacity="1.000000" stroke="none" 
	d="
M424.157959,177.266235 
	C425.387573,178.090927 426.678406,179.232986 427.967560,180.716003 
	C426.716949,179.899185 425.468048,178.741394 424.157959,177.266235 
z"/>
<path fill="#414141" opacity="1.000000" stroke="none" 
	d="
M408.483612,163.773117 
	C408.301086,163.136810 408.321808,162.224625 408.342529,161.312454 
	C409.182404,161.711548 410.022247,162.110641 410.863007,162.860199 
	C410.138214,163.306198 409.412506,163.401733 408.483612,163.773117 
z"/>
<path fill="#3F3F3F" opacity="1.000000" stroke="none" 
	d="
M519.860168,273.125519 
	C519.368591,272.594391 519.148499,272.036987 518.928467,271.479584 
	C519.877991,271.902374 520.827576,272.325165 521.716919,273.105286 
	C521.148376,273.341553 520.640076,273.220398 519.860168,273.125519 
z"/>
<path fill="#212121" opacity="1.000000" stroke="none" 
	d="
M135.850616,487.410828 
	C136.885300,487.997101 137.991638,488.886871 139.093109,490.116577 
	C138.032928,489.542419 136.977600,488.628387 135.850616,487.410828 
z"/>
<path fill="#414141" opacity="1.000000" stroke="none" 
	d="
M440.227905,193.222336 
	C441.093323,193.762680 442.032745,194.604126 442.927368,195.785309 
	C442.022369,195.257858 441.162170,194.390640 440.227905,193.222336 
z"/>
<path fill="#414141" opacity="1.000000" stroke="none" 
	d="
M466.317322,627.939575 
	C466.776245,627.012024 467.542816,626.011108 468.646667,625.000610 
	C468.197632,625.949463 467.411316,626.907898 466.317322,627.939575 
z"/>
<path fill="#454545" opacity="1.000000" stroke="none" 
	d="
M231.880798,583.445557 
	C232.832809,583.905579 233.855469,584.682800 234.885559,585.811523 
	C233.912460,585.362976 232.931961,584.562866 231.880798,583.445557 
z"/>
<path fill="#454545" opacity="1.000000" stroke="none" 
	d="
M247.994370,599.355103 
	C248.941376,599.815247 249.944138,600.592712 250.951050,601.712646 
	C249.986832,601.260925 249.018463,600.466675 247.994370,599.355103 
z"/>
<path fill="#454545" opacity="1.000000" stroke="none" 
	d="
M281.184143,632.206421 
	C281.896667,631.945496 282.617981,631.963013 283.700623,632.006226 
	C283.105621,632.182983 282.149323,632.333923 281.184143,632.206421 
z"/>
<path fill="#212121" opacity="1.000000" stroke="none" 
	d="
M197.995880,549.368408 
	C198.568665,548.997375 199.221024,548.955383 200.200653,548.921631 
	C200.326538,549.572144 200.125168,550.214417 199.923782,550.856750 
	C199.307678,550.470337 198.691574,550.083923 197.995880,549.368408 
z"/>
<path fill="#3F3F3F" opacity="1.000000" stroke="none" 
	d="
M519.752441,498.644653 
	C519.223877,498.760468 518.825623,498.490906 518.201904,498.130920 
	C518.292114,497.317749 518.607849,496.594940 519.248657,495.873718 
	C519.676697,496.669922 519.779663,497.464600 519.752441,498.644653 
z"/>
<path fill="#212121" opacity="1.000000" stroke="none" 
	d="
M120.890396,472.362000 
	C121.595894,472.645020 122.346207,473.216736 123.093056,474.112183 
	C122.371460,473.840820 121.653328,473.245728 120.890396,472.362000 
z"/>
<path fill="#414141" opacity="1.000000" stroke="none" 
	d="
M415.933319,621.711060 
	C415.323273,621.585327 414.663147,621.161499 413.979797,620.423340 
	C414.598785,620.543701 415.241028,620.978271 415.933319,621.711060 
z"/>
<path fill="#010101" opacity="1.000000" stroke="none" 
	d="
M408.324036,243.743958 
	C407.633789,243.795135 407.025024,243.485443 406.416260,243.175751 
	C406.772797,242.787018 407.129333,242.398285 407.823975,241.972458 
	C408.243256,242.417938 408.324371,242.900497 408.324036,243.743958 
z"/>
<path fill="#454545" opacity="1.000000" stroke="none" 
	d="
M291.390015,623.057861 
	C291.452271,622.432373 291.803619,621.713806 292.479553,620.959351 
	C292.429108,621.603821 292.054108,622.284363 291.390015,623.057861 
z"/>
<path fill="#454545" opacity="1.000000" stroke="none" 
	d="
M225.094955,576.262329 
	C225.730698,576.476807 226.329819,577.005493 226.902939,577.858643 
	C226.270737,577.647583 225.664536,577.112000 225.094955,576.262329 
z"/>
<path fill="#454545" opacity="1.000000" stroke="none" 
	d="
M301.429810,195.123154 
	C301.561920,194.498978 301.999207,193.812805 302.772461,193.111084 
	C302.650604,193.750748 302.192810,194.405945 301.429810,195.123154 
z"/>
<path fill="#454545" opacity="1.000000" stroke="none" 
	d="
M303.400208,193.050262 
	C303.536926,192.423615 303.977325,191.739441 304.753967,191.056061 
	C304.628113,191.702148 304.166016,192.347443 303.400208,193.050262 
z"/>
<path fill="#454545" opacity="1.000000" stroke="none" 
	d="
M334.871704,586.177551 
	C335.136902,586.561218 335.284271,587.124329 335.226135,587.841370 
	C334.931671,587.449158 334.842773,586.903137 334.871704,586.177551 
z"/>
<path fill="#454545" opacity="1.000000" stroke="none" 
	d="
M222.201309,272.545746 
	C222.247025,272.120453 222.639694,271.707428 223.032349,271.294373 
	C223.333008,271.814362 223.633667,272.334381 223.772247,273.150330 
	C223.256195,273.150208 222.902237,272.854095 222.201309,272.545746 
z"/>
<path fill="#3F3F3F" opacity="1.000000" stroke="none" 
	d="
M519.647705,406.851990 
	C519.030029,406.584473 518.569031,406.071472 518.056458,405.280701 
	C518.252808,404.974579 518.500732,404.946320 519.122070,404.944397 
	C519.598450,405.515991 519.701477,406.061279 519.647705,406.851990 
z"/>
<path fill="#454545" opacity="1.000000" stroke="none" 
	d="
M287.372742,628.035339 
	C287.450653,627.414612 287.817719,626.702576 288.512085,625.962463 
	C288.446838,626.604248 288.054382,627.274170 287.372742,628.035339 
z"/>
<path fill="#212121" opacity="1.000000" stroke="none" 
	d="
M144.811096,496.442017 
	C145.442383,496.596832 146.159119,497.059113 146.877319,497.884888 
	C146.218048,497.748749 145.557297,497.249115 144.811096,496.442017 
z"/>
<path fill="#414141" opacity="1.000000" stroke="none" 
	d="
M436.997070,190.346069 
	C437.610352,190.455566 438.300171,190.862701 439.017029,191.593445 
	C438.387238,191.492615 437.730408,191.068161 436.997070,190.346069 
z"/>
<path fill="#212121" opacity="1.000000" stroke="none" 
	d="
M128.858765,480.412109 
	C129.488266,480.561859 130.193771,481.018372 130.904816,481.830841 
	C130.251816,481.697479 129.593292,481.208191 128.858765,480.412109 
z"/>
<path fill="#212121" opacity="1.000000" stroke="none" 
	d="
M123.869827,475.405273 
	C124.504799,475.563293 125.205551,476.031860 125.902252,476.855988 
	C125.244003,476.712952 124.589806,476.214386 123.869827,475.405273 
z"/>
<path fill="#1B1B1B" opacity="1.000000" stroke="none" 
	d="
M574.717529,327.488037 
	C575.367676,327.666229 576.106445,328.161743 576.825928,329.041504 
	C576.139771,328.885620 575.473022,328.345520 574.717529,327.488037 
z"/>
<path fill="#1B1B1B" opacity="1.000000" stroke="none" 
	d="
M558.965393,311.350159 
	C559.569031,311.516754 560.247925,311.984802 560.931030,312.798767 
	C560.303711,312.646973 559.672180,312.149292 558.965393,311.350159 
z"/>
<path fill="#1B1B1B" opacity="1.000000" stroke="none" 
	d="
M563.878967,316.397278 
	C564.508484,316.569458 565.206055,317.052765 565.893677,317.895477 
	C565.238159,317.739380 564.592590,317.223907 563.878967,316.397278 
z"/>
<path fill="#111111" opacity="1.000000" stroke="none" 
	d="
M500.001221,242.999374 
	C499.916107,243.652985 499.774323,244.880997 499.753937,244.878983 
	C496.107635,244.519028 496.250092,250.186203 492.349884,249.632324 
	C492.111115,249.598404 491.494629,252.224167 490.946411,253.951080 
	C488.239868,251.617752 484.716034,250.159241 489.218811,245.989105 
	C497.634247,238.195251 505.699585,230.022537 513.877563,221.973907 
	C515.375916,220.499207 516.717590,218.865280 518.395081,217.014069 
	C519.678711,218.209122 521.014954,219.453171 522.342590,220.689163 
	C521.536194,222.005707 520.781372,223.494064 519.779236,224.791428 
	C519.008240,225.789566 518.029480,227.120819 516.964478,227.312836 
	C512.346313,228.145538 512.278320,229.658096 510.380981,233.352936 
	C508.405090,237.200668 504.052338,239.827835 500.359131,242.752838 
	C499.859589,242.240311 499.739807,241.963638 499.619995,241.686951 
	C499.495209,241.774673 499.370453,241.862427 499.245697,241.950165 
	C499.497559,242.299911 499.749390,242.649643 500.001221,242.999374 
z"/>
<path fill="#121212" opacity="1.000000" stroke="none" 
	d="
M359.996765,103.002174 
	C358.149445,105.280602 356.377289,107.626305 354.423981,109.809959 
	C353.400848,110.953735 352.059784,111.813156 350.537231,113.069160 
	C346.158844,111.085045 345.896606,109.270607 349.769806,105.524254 
	C357.427887,98.116966 364.873260,90.490059 372.508118,83.058273 
	C374.532166,81.088081 376.925720,79.497536 378.826843,77.988792 
	C379.253540,79.462936 379.744934,81.160683 380.236359,82.858437 
	C381.216919,82.360909 382.197479,81.863380 383.178040,81.365845 
	C382.162872,82.039223 380.669586,82.487549 380.225952,83.429955 
	C379.088928,85.845490 378.709412,88.283134 374.786713,87.763252 
	C373.535309,87.597412 371.062561,90.564720 370.494324,92.494629 
	C368.939026,97.776611 365.520081,100.915710 360.360474,102.747925 
	C359.864655,102.236076 359.743439,101.959824 359.622192,101.683578 
	C359.497253,101.771378 359.372345,101.859169 359.247406,101.946960 
	C359.497192,102.298698 359.747009,102.650436 359.996765,103.002174 
z"/>
<path fill="#121212" opacity="1.000000" stroke="none" 
	d="
M357.930511,385.515167 
	C356.385681,385.144897 354.681671,384.651520 353.566772,383.557678 
	C353.214874,383.212433 354.143005,380.976562 354.990753,380.088348 
	C361.126801,373.658966 367.290833,367.248901 373.657379,361.049866 
	C377.140076,357.658813 381.034729,354.690796 384.750061,351.526550 
	C386.270538,352.656525 387.825531,353.812134 389.380554,354.967773 
	C388.808563,354.397522 388.236572,353.827301 387.664551,353.257050 
	C386.781403,355.166534 386.080109,357.193359 384.950684,358.943939 
	C384.206268,360.097778 383.688873,362.952972 381.243530,360.500671 
	C379.823547,362.382416 377.934357,364.073822 377.078278,366.184265 
	C375.115753,371.022583 369.975525,375.573151 365.790039,375.500916 
	C367.671082,380.799713 361.376862,379.946930 360.134552,382.956757 
	C359.771973,383.835266 358.729797,384.433289 357.930511,385.515167 
z"/>
<path fill="#121212" opacity="1.000000" stroke="none" 
	d="
M491.541931,337.492981 
	C493.642181,335.209320 495.491669,333.186554 497.411133,331.087280 
	C499.170135,332.208008 500.509186,333.061188 503.326782,334.856384 
	C499.853546,336.988708 496.866882,338.359406 494.495392,340.433502 
	C492.782440,341.931519 491.431580,344.220764 490.738586,346.415802 
	C489.795288,349.403809 482.938263,355.532623 479.456818,355.520966 
	C479.686310,356.418732 480.312622,357.804596 480.048676,358.002380 
	C477.633148,359.812408 474.940918,361.265198 472.601227,363.158203 
	C471.730530,363.862671 471.579102,365.456146 470.829285,367.314270 
	C469.167786,366.054749 467.593689,364.861450 465.283783,363.110413 
	C474.253143,354.365540 482.772156,346.059692 491.541931,337.492981 
z"/>
<path fill="#121212" opacity="1.000000" stroke="none" 
	d="
M290.832886,165.866226 
	C297.105133,159.365280 303.236481,153.184509 309.416382,147.052643 
	C310.201721,146.273422 311.241028,145.750137 312.302704,145.010727 
	C313.212463,145.656418 314.787720,146.774414 316.074615,147.687790 
	C315.008331,149.068192 313.971222,150.478745 312.857178,151.825684 
	C312.261719,152.545685 311.273834,153.847885 310.905212,153.709503 
	C306.900726,152.206314 305.923889,155.885544 305.008240,157.800003 
	C301.698761,164.719742 296.563080,169.536636 290.097656,173.374527 
	C288.363525,174.403915 288.743805,178.665161 284.668549,175.745651 
	C284.668549,178.020218 284.668549,179.240097 284.668549,181.058044 
	C283.442596,180.296661 282.260040,179.984756 282.002533,179.316422 
	C281.424316,177.815689 280.483643,175.363480 281.141144,174.665894 
	C284.049500,171.580292 287.471130,168.978424 290.832886,165.866226 
z"/>
<path fill="#121212" opacity="1.000000" stroke="none" 
	d="
M266.842773,374.777893 
	C268.409668,373.659515 269.688660,372.775269 271.109924,371.792664 
	C272.278442,372.646179 273.857513,373.799622 275.995239,375.361145 
	C271.815369,375.406433 273.698517,384.339691 266.865845,380.207703 
	C262.888245,386.313446 261.431641,395.088226 252.999161,395.817413 
	C249.718002,399.951935 246.780243,403.653748 243.487030,407.803436 
	C242.220840,406.402191 240.745438,404.769409 238.703125,402.509247 
	C242.239792,399.625427 245.806335,396.900940 249.142792,393.918976 
	C250.805756,392.432739 251.959503,390.393005 253.496460,388.746368 
	C257.806702,384.128540 262.196472,379.584930 266.842773,374.777893 
z"/>
<path fill="#121212" opacity="1.000000" stroke="none" 
	d="
M263.898895,293.636841 
	C260.400208,291.513763 258.688324,289.826599 262.643646,286.146301 
	C270.962982,278.405334 278.629181,269.965851 286.678986,261.928772 
	C288.170746,260.439423 290.205261,259.493713 292.406525,258.017181 
	C293.332458,258.894470 294.893005,260.372986 296.298035,261.704193 
	C295.055878,263.024384 293.868500,264.373444 292.582672,265.621002 
	C291.781708,266.398132 290.821198,267.627045 289.950806,267.611572 
	C285.803864,267.537750 285.099731,270.590149 283.542542,273.411987 
	C282.216888,275.814270 279.669800,277.542572 277.100830,278.688354 
	C276.792999,279.873199 276.644287,282.014130 276.152954,282.095886 
	C270.878815,282.973389 270.274017,290.111786 264.714508,290.561462 
	C264.472931,290.580994 264.389099,292.550812 263.898895,293.636841 
z"/>
<path fill="#121212" opacity="1.000000" stroke="none" 
	d="
M573.000000,449.001221 
	C572.232178,450.013367 571.558838,451.117798 570.678040,452.019653 
	C568.369873,454.383179 565.971191,456.658295 562.805298,459.754150 
	C562.028503,458.713776 560.759216,457.013794 559.489990,455.313843 
	C560.659546,454.773315 561.829102,454.232788 563.032043,453.676849 
	C563.726440,452.370087 564.320679,450.392639 565.578125,449.024933 
	C573.801086,440.081116 582.167480,431.269287 590.798279,422.083038 
	C592.883972,424.860535 594.036987,426.395996 595.629700,428.516937 
	C593.568604,429.613190 590.884399,430.417114 589.094055,432.146423 
	C586.700500,434.458496 584.868347,437.402893 583.034729,440.231140 
	C580.632996,443.935547 578.606445,447.940613 573.317200,448.854706 
	C572.804810,448.666595 572.716431,448.617462 572.628113,448.568329 
	C572.752075,448.712616 572.876038,448.856934 573.000000,449.001221 
z"/>
<path fill="#121212" opacity="1.000000" stroke="none" 
	d="
M95.995079,366.993591 
	C95.260628,368.091400 94.526169,369.189209 93.791718,370.287018 
	C93.611908,370.220703 93.432106,370.154358 93.252304,370.088013 
	C90.044128,373.361755 86.835960,376.635468 82.943787,380.607147 
	C82.147804,379.988861 80.532547,378.734161 78.447777,377.114777 
	C89.522881,366.244537 100.050575,355.911591 110.670242,345.488342 
	C112.413368,346.283783 114.121269,347.063141 117.189583,348.463257 
	C113.328049,351.058716 110.192703,352.998505 107.264709,355.212494 
	C106.006233,356.164124 104.593414,357.548889 104.262527,358.972137 
	C103.213219,363.485504 100.254623,365.523163 95.903694,366.752014 
	C95.817924,367.068909 95.906502,367.031250 95.995079,366.993591 
z"/>
<path fill="#121212" opacity="1.000000" stroke="none" 
	d="
M176.044128,286.696350 
	C174.027405,289.132721 172.079712,291.289154 170.077087,293.393250 
	C165.742813,297.947083 161.461700,302.556152 156.995392,306.977509 
	C154.745804,309.204437 152.139252,311.070770 148.856125,313.795685 
	C148.183182,313.025665 147.052490,311.731842 145.637650,310.112885 
	C156.633850,299.252594 167.248474,288.769165 177.626312,278.519592 
	C179.436127,279.788635 180.930847,280.836731 182.960922,282.260223 
	C180.551407,283.709045 178.319824,285.050873 176.044128,286.696350 
z"/>
<path fill="#121212" opacity="1.000000" stroke="none" 
	d="
M636.898804,386.020020 
	C634.450439,388.174225 632.354065,390.282959 629.781921,392.870239 
	C628.873352,392.056396 627.471191,390.800323 626.913208,390.300507 
	C637.084656,378.935333 647.058533,367.790955 656.918396,356.773926 
	C659.455383,358.610168 660.986206,359.718140 662.453796,360.780365 
	C658.518860,364.193054 654.356995,367.398865 650.705383,371.107178 
	C648.141113,373.711304 646.458862,377.167328 644.005920,379.905304 
	C642.937439,381.097961 640.924561,381.444550 639.718506,382.001007 
	C638.891968,383.331940 638.071350,384.653259 636.898804,386.020020 
z"/>
<path fill="#121212" opacity="1.000000" stroke="none" 
	d="
M445.485901,477.081848 
	C445.114899,476.587646 445.082275,476.116638 445.098328,475.293671 
	C450.482941,470.163818 455.779297,465.340454 461.189026,460.647705 
	C462.232544,459.742554 463.719940,459.349091 464.928131,458.756134 
	C466.512634,451.906464 474.474335,450.151459 477.626038,444.347870 
	C479.355225,445.582336 480.894348,446.681152 482.197815,447.611694 
	C481.435822,448.805634 480.823944,450.224518 479.805511,451.232666 
	C478.755768,452.271729 477.187256,453.743927 476.059204,453.577728 
	C471.638458,452.926270 471.123322,456.442352 470.401917,458.924225 
	C469.199188,463.062134 462.658234,468.952545 459.053406,468.682709 
	C459.001678,474.877563 451.762329,475.080841 450.040009,479.844757 
	C448.525635,478.860596 447.174988,477.982849 445.485901,477.081848 
z"/>
<path fill="#121212" opacity="1.000000" stroke="none" 
	d="
M371.995117,650.003479 
	C370.419281,652.132568 368.843475,654.261597 367.252289,656.411438 
	C361.889465,653.858826 362.067749,651.917969 366.661499,647.768494 
	C374.925903,640.303467 382.736877,632.336365 390.830688,624.488464 
	C391.994598,625.565857 393.227966,626.707581 394.952423,628.303894 
	C390.482758,627.898560 393.668823,637.888855 386.456177,633.275452 
	C382.825134,639.857849 380.331421,647.062561 372.320923,649.846252 
	C371.808960,649.662903 371.720367,649.613525 371.631744,649.564209 
	C371.752869,649.710632 371.873993,649.857056 371.995117,650.003479 
z"/>
<path fill="#212121" opacity="1.000000" stroke="none" 
	d="
M198.992096,445.992035 
	C196.998047,455.117371 191.422150,461.624695 183.958817,466.851074 
	C181.135208,468.828400 178.581360,471.190918 175.135406,474.006195 
	C174.231354,472.994659 173.089066,471.716553 171.341873,469.761627 
	C175.434235,466.542755 179.307129,463.939056 182.627441,460.758514 
	C185.852356,457.669342 188.322021,453.799835 191.487747,450.637848 
	C193.391541,448.736328 195.992065,447.532410 198.647705,446.015350 
	C199.015930,446.015717 199.000000,446.000000 198.992096,445.992035 
z"/>
<path fill="#121212" opacity="1.000000" stroke="none" 
	d="
M223.999664,233.999390 
	C226.225266,230.880157 228.118927,227.440567 230.750900,224.713531 
	C235.176682,220.127899 240.071716,215.995163 244.791626,211.651398 
	C246.223572,212.663696 247.811783,213.786469 249.531296,215.002075 
	C244.887436,219.486511 238.373505,221.744614 235.734848,228.764328 
	C234.518402,232.000519 231.797653,237.418320 225.135986,234.927368 
	C224.285049,234.581772 224.099442,234.321152 223.999664,233.999390 
z"/>
<path fill="#121212" opacity="1.000000" stroke="none" 
	d="
M146.683655,408.001465 
	C147.355637,408.109955 147.604950,408.291931 147.893677,408.770508 
	C145.206802,415.130524 142.627029,417.013550 139.817581,415.912537 
	C138.064743,418.112732 136.641205,420.107117 134.999329,421.901703 
	C133.379364,423.672333 131.538483,425.240875 129.558533,427.122314 
	C125.055420,424.695526 124.816833,423.681122 128.756592,419.781158 
	C133.260559,415.322784 137.868042,410.968994 142.543655,406.460693 
	C143.710297,406.932983 145.016449,407.461761 146.683655,408.001465 
z"/>
<path fill="#121212" opacity="1.000000" stroke="none" 
	d="
M408.009247,142.004379 
	C410.613617,138.928406 413.034729,135.669479 415.872467,132.826416 
	C418.884796,129.808395 422.292450,127.184967 425.824768,124.132309 
	C426.487030,125.640320 427.275940,127.436661 428.064819,129.233002 
	C428.520416,128.757660 428.975983,128.282303 429.431549,127.806953 
	C427.728699,130.068146 426.025818,132.329330 424.185638,134.772858 
	C423.063751,134.258286 421.933685,133.739975 420.528717,133.095566 
	C419.084564,136.252762 417.886505,139.252121 416.371277,142.081619 
	C414.729431,145.147614 412.416687,145.935806 409.197266,142.928741 
	C408.582825,142.285431 408.326111,142.102646 408.009247,142.004379 
z"/>
<path fill="#121212" opacity="1.000000" stroke="none" 
	d="
M473.291748,176.868134 
	C465.294220,178.972412 464.836792,187.984329 459.102173,192.156219 
	C457.314789,190.696579 455.831360,189.485168 453.183044,187.322433 
	C459.466919,181.365250 465.446777,175.696304 470.343567,171.054108 
	C472.438110,172.597351 473.939484,173.703537 475.668732,174.977615 
	C475.177368,175.329391 474.309906,175.950439 473.291748,176.868134 
z"/>
<path fill="#121212" opacity="1.000000" stroke="none" 
	d="
M282.070312,550.528564 
	C282.558075,551.858398 283.045868,553.188293 283.668671,554.886292 
	C279.696533,557.748901 276.437592,561.672607 271.518646,563.569336 
	C270.657166,563.901489 270.554565,566.201904 269.873627,568.293030 
	C268.197174,566.438477 266.715393,564.799316 264.799561,562.679932 
	C270.106232,558.070740 275.294312,553.564514 280.951996,549.264771 
	C281.637848,549.823669 281.854095,550.176147 282.070312,550.528564 
z"/>
<path fill="#121212" opacity="1.000000" stroke="none" 
	d="
M407.661560,142.038330 
	C408.326111,142.102646 408.582825,142.285431 408.885376,142.767242 
	C409.516785,144.468842 410.042175,145.955902 410.786896,148.063736 
	C406.320587,151.657852 401.653076,155.413879 396.463715,159.589844 
	C395.638733,158.847870 394.373138,157.709595 392.448151,155.978271 
	C397.594208,151.164429 402.454010,146.618362 407.661560,142.038330 
z"/>
<path fill="#1A1A1A" opacity="1.000000" stroke="none" 
	d="
M343.011383,211.012177 
	C342.020416,208.372681 341.924530,206.349472 344.656525,204.199493 
	C349.606201,200.304291 354.052521,195.769531 358.765991,191.449493 
	C360.005249,192.602814 361.235168,193.747406 363.403076,195.764984 
	C360.684143,196.575485 357.892181,196.595978 356.496246,198.002258 
	C354.015106,200.501740 352.144348,203.715012 350.460358,206.865967 
	C348.925873,209.737244 347.789642,212.623108 343.338928,211.029633 
	C343.000000,211.000259 343.011383,211.012177 343.011383,211.012177 
z"/>
<path fill="#111111" opacity="1.000000" stroke="none" 
	d="
M447.467285,574.928467 
	C446.456726,573.216431 445.784454,571.437073 445.151184,569.269775 
	C449.444946,565.141479 453.699707,561.401062 457.977936,557.639954 
	C459.252228,558.685486 460.687164,559.862793 462.042603,560.974854 
	C457.328918,565.572327 452.567230,570.216675 447.467285,574.928467 
z"/>
<path fill="#121212" opacity="1.000000" stroke="none" 
	d="
M384.912933,260.860382 
	C385.143005,262.305511 385.373108,263.750610 385.501801,264.559052 
	C384.088898,266.191101 382.953522,267.502533 381.392670,269.305420 
	C380.269989,269.944702 378.398743,271.010223 375.992889,272.380188 
	C372.151123,270.776947 371.848083,269.256836 375.627563,266.205048 
	C378.200317,264.127655 380.807922,262.093475 383.857483,260.234192 
	C384.466858,260.638062 384.666138,260.782043 384.912933,260.860382 
M376.483459,269.579926 
	C376.483459,269.579926 376.421997,269.473053 376.483459,269.579926 
z"/>
<path fill="#141414" opacity="1.000000" stroke="none" 
	d="
M223.628616,233.999542 
	C224.099442,234.321152 224.285049,234.581772 224.774414,234.889008 
	C225.534653,236.133698 226.076996,237.270615 226.523697,238.207047 
	C223.217178,241.002350 220.021011,243.704361 216.305466,246.845474 
	C215.721039,245.944977 214.576447,244.181335 213.431854,242.417725 
	C214.476212,242.121033 215.520569,241.824341 216.783752,241.465485 
	C217.017014,237.831009 218.987518,234.980774 223.628616,233.999542 
z"/>
<path fill="#333333" opacity="1.000000" stroke="none" 
	d="
M385.253906,260.912292 
	C384.666138,260.782043 384.466858,260.638062 384.234894,260.261414 
	C386.221344,257.452606 388.287933,254.810791 390.684174,252.089935 
	C391.013794,252.010880 390.999023,251.998810 391.006531,252.329559 
	C391.680420,253.111298 392.346741,253.562286 393.013092,254.013275 
	C393.013092,254.013275 393.000580,254.000595 392.994202,253.993958 
	C394.923126,257.033752 392.848358,258.893402 390.974640,260.822052 
	C389.220734,262.627411 387.438293,262.813965 385.253906,260.912292 
z"/>
<path fill="#414141" opacity="1.000000" stroke="none" 
	d="
M391.019043,534.015869 
	C392.252991,531.346619 393.486938,528.677368 394.833496,525.764465 
	C397.308258,527.263000 398.807251,528.170654 400.661743,529.046631 
	C401.017273,529.015015 401.001251,529.000610 400.994873,528.992371 
	C399.179840,531.123047 397.538696,533.454956 395.448029,535.268799 
	C394.907501,535.737732 392.957153,534.581604 391.327271,534.085938 
	C391.000122,534.000000 391.019043,534.015869 391.019043,534.015869 
z"/>
<path fill="#141414" opacity="1.000000" stroke="none" 
	d="
M445.679810,294.028259 
	C445.278839,292.666931 445.186859,291.226257 445.142029,289.352936 
	C447.487274,287.665924 449.785370,286.411621 452.377533,284.996796 
	C453.115814,285.566528 454.535553,286.662109 456.542389,288.210754 
	C453.057159,290.105743 449.523010,292.027344 445.679810,294.028259 
z"/>
<path fill="#3F3F3F" opacity="1.000000" stroke="none" 
	d="
M558.272217,271.397766 
	C559.789185,271.099762 561.033997,271.016449 562.739197,270.902344 
	C559.905762,274.177338 557.619873,276.819489 555.014709,279.830688 
	C551.687012,278.580322 551.294373,277.352112 554.497070,274.264404 
	C555.543945,273.255127 556.825745,272.489563 558.272217,271.397766 
z"/>
<path fill="#414141" opacity="1.000000" stroke="none" 
	d="
M390.992096,533.990601 
	C391.361420,535.442688 391.738770,536.904175 392.220245,538.768860 
	C388.309601,536.576599 388.838837,544.186707 384.343903,541.952759 
	C384.000641,542.000000 384.017212,542.015015 384.017212,542.015015 
	C383.264618,537.399902 385.100494,535.087341 390.645874,534.075562 
	C391.019043,534.015869 391.000122,534.000000 390.992096,533.990601 
z"/>
<path fill="#1A1A1A" opacity="1.000000" stroke="none" 
	d="
M336.425415,219.020020 
	C335.999847,217.324539 335.961548,215.625565 335.925171,213.506500 
	C337.769104,211.464142 338.793549,207.419342 342.687012,210.963379 
	C343.011383,211.012177 343.000000,211.000259 342.994141,210.994446 
	C343.347839,213.161987 344.991760,215.916412 340.327148,215.716705 
	C339.627075,215.112762 339.322754,214.787643 339.018433,214.462524 
	C338.836975,214.672363 338.655518,214.882202 338.474060,215.092041 
	C338.985748,215.391830 339.497467,215.691635 340.009155,215.991425 
	C338.943634,216.999786 337.878143,218.008163 336.425415,219.020020 
z"/>
<path fill="#454545" opacity="1.000000" stroke="none" 
	d="
M291.991211,538.988770 
	C290.871735,541.928589 289.761047,544.878845 288.439880,548.388184 
	C287.261658,546.863098 285.239319,544.672485 285.442719,544.441467 
	C287.170074,542.479492 289.302551,540.874146 291.667236,539.089111 
	C292.020905,539.016357 292.000000,538.999084 291.991211,538.988770 
z"/>
<path fill="#1A1A1A" opacity="1.000000" stroke="none" 
	d="
M337.187805,312.919128 
	C336.533081,311.498566 336.245361,310.111298 335.983582,308.356476 
	C336.557587,306.868622 337.105682,305.748322 337.686462,304.561157 
	C339.213715,305.633942 340.767639,306.725494 342.320923,307.816589 
	C340.775330,309.482086 339.165070,311.217255 337.187805,312.919128 
z"/>
<path fill="#414141" opacity="1.000000" stroke="none" 
	d="
M383.993347,541.991699 
	C383.839508,543.423645 383.692963,544.863831 383.469879,547.056702 
	C381.825073,545.718079 380.641724,544.755066 379.458405,543.792053 
	C379.467010,543.295349 379.475647,542.798645 379.484253,542.301941 
	C380.792786,542.227295 382.101318,542.152588 383.713531,542.046448 
	C384.017212,542.015015 384.000641,542.000000 383.993347,541.991699 
z"/>
<path fill="#454545" opacity="1.000000" stroke="none" 
	d="
M282.334229,550.716675 
	C281.854095,550.176147 281.637848,549.823669 281.331360,549.285095 
	C281.432526,548.364014 281.623962,547.629028 281.920715,546.489868 
	C283.596161,547.840820 284.928558,548.915222 287.395996,550.904846 
	C284.960541,550.904846 283.779358,550.904846 282.334229,550.716675 
z"/>
<path fill="#3F3F3F" opacity="1.000000" stroke="none" 
	d="
M546.871033,283.646057 
	C547.503357,285.347229 548.071838,286.751404 548.640320,288.155579 
	C548.116882,288.300842 547.593445,288.446075 547.070007,288.591339 
	C546.749512,286.715881 546.429016,284.840424 546.108582,282.964935 
	C546.248352,282.962097 546.419434,282.907928 546.519897,282.969391 
	C546.645996,283.046387 546.714050,283.218170 546.871033,283.646057 
z"/>
<path fill="#3F3F3F" opacity="1.000000" stroke="none" 
	d="
M565.816528,269.724731 
	C564.992554,269.859497 564.143555,269.691315 563.294556,269.523132 
	C563.493713,269.073883 563.692871,268.624634 563.892090,268.175415 
	C564.525208,268.590881 565.158325,269.006378 565.816528,269.724731 
z"/>
<path fill="#3F3F3F" opacity="1.000000" stroke="none" 
	d="
M548.559082,281.072998 
	C549.576294,281.025635 550.609558,281.252167 551.642761,281.478729 
	C551.515198,281.859039 551.387634,282.239349 551.260071,282.619690 
	C550.365112,282.195404 549.470154,281.771118 548.559082,281.072998 
z"/>
<path fill="#3F3F3F" opacity="1.000000" stroke="none" 
	d="
M564.627075,265.343445 
	C564.772522,265.014496 565.055176,264.837402 565.337769,264.660309 
	C565.146545,264.938629 564.955383,265.216949 564.627075,265.343445 
z"/>
<path fill="#1A1A1A" opacity="1.000000" stroke="none" 
	d="
M337.134979,589.798462 
	C336.854553,589.915283 336.860260,589.584473 336.874756,589.422546 
	C337.154480,588.739990 337.419708,588.219360 337.858551,587.862549 
	C337.826569,588.578125 337.620972,589.129944 337.134979,589.798462 
z"/>
<path fill="#121212" opacity="1.000000" stroke="none" 
	d="
M176.011108,287.240906 
	C176.248856,287.350098 176.497726,287.700195 176.746582,288.050293 
	C176.622253,288.136963 176.497910,288.223663 176.373581,288.310333 
	C176.256470,288.034149 176.139359,287.757965 176.011108,287.240906 
z"/>
<path fill="#454545" opacity="1.000000" stroke="none" 
	d="
M296.481995,541.497192 
	C296.477417,541.475769 296.486603,541.518555 296.481995,541.497192 
z"/>
<path fill="#3F3F3F" opacity="1.000000" stroke="none" 
	d="
M561.545654,267.490845 
	C561.559326,267.519165 561.531921,267.462494 561.545654,267.490845 
z"/>
<path fill="#3F3F3F" opacity="1.000000" stroke="none" 
	d="
M567.477966,267.479279 
	C567.509766,267.465698 567.446167,267.492859 567.477966,267.479279 
z"/>
<path fill="#1A1A1A" opacity="1.000000" stroke="none" 
	d="
M337.072693,496.827209 
	C336.813995,496.871643 336.789459,496.560699 337.090210,496.315796 
	C337.594604,496.052185 337.798248,496.033478 338.001923,496.014740 
	C338.001923,496.014740 338.002350,496.001129 337.994171,496.000305 
	C337.767792,496.260590 337.549591,496.521667 337.072693,496.827209 
z"/>
<path fill="#3F3F3F" opacity="1.000000" stroke="none" 
	d="
M550.486145,278.526337 
	C550.476746,278.502258 550.495544,278.550415 550.486145,278.526337 
z"/>
<path fill="#3F3F3F" opacity="1.000000" stroke="none" 
	d="
M552.521240,284.526611 
	C552.477539,284.551178 552.564941,284.502014 552.521240,284.526611 
z"/>
<path fill="#010101" opacity="1.000000" stroke="none" 
	d="
M297.321411,442.618591 
	C297.601776,442.738251 297.727417,442.984894 297.782837,443.246399 
	C297.795319,443.305054 297.562317,443.415741 297.442322,443.502502 
	C297.341980,443.251984 297.241638,443.001465 297.321411,442.618591 
z"/>
<path fill="#010101" opacity="1.000000" stroke="none" 
	d="
M449.216003,196.198227 
	C448.791412,196.755814 448.366791,197.313400 447.942200,197.870987 
	C448.058868,197.272705 448.175507,196.674423 448.653717,196.040878 
	C449.015259,196.005630 449.216003,196.198227 449.216003,196.198227 
z"/>
<path fill="#010101" opacity="1.000000" stroke="none" 
	d="
M448.918427,195.905792 
	C449.014435,195.642548 449.207245,195.479172 449.400085,195.315781 
	C449.442413,195.529053 449.484741,195.742340 449.371521,196.076920 
	C449.216003,196.198227 449.015259,196.005630 448.918427,195.905792 
z"/>
<path fill="#010101" opacity="1.000000" stroke="none" 
	d="
M337.962036,495.713196 
	C337.798248,496.033478 337.594604,496.052185 337.095398,496.159912 
	C336.799805,496.248993 336.382782,496.162140 336.175537,496.112122 
	C336.203766,495.529602 336.439240,494.997162 336.674713,494.464691 
	C337.090546,494.780334 337.506378,495.095978 337.962036,495.713196 
z"/>
<path fill="#010101" opacity="1.000000" stroke="none" 
	d="
M592.988647,336.007843 
	C592.852844,335.563904 592.731201,335.108978 592.609558,334.654022 
	C592.743103,334.929718 592.876648,335.205414 593.019592,335.726318 
	C593.028931,335.971527 593.002869,335.996826 592.988647,336.007843 
z"/>
<path fill="#010101" opacity="1.000000" stroke="none" 
	d="
M393.003113,253.675690 
	C392.346741,253.562286 391.680420,253.111298 390.999786,252.322937 
	C391.654724,252.436417 392.323944,252.887268 393.003113,253.675690 
z"/>
<path fill="#010101" opacity="1.000000" stroke="none" 
	d="
M403.939667,246.049500 
	C403.765991,245.885956 403.650696,245.667465 403.535400,245.448975 
	C403.666229,245.485123 403.797058,245.521255 404.017639,245.717255 
	C404.107361,245.877136 403.998077,245.994553 403.939667,246.049500 
z"/>
<path fill="#010101" opacity="1.000000" stroke="none" 
	d="
M500.000610,242.999695 
	C499.749390,242.649643 499.497559,242.299911 499.245697,241.950165 
	C499.370453,241.862427 499.495209,241.774673 499.619995,241.686951 
	C499.739807,241.963638 499.859589,242.240311 499.989075,242.759109 
	C499.998779,243.001221 500.000000,243.000000 500.000610,242.999695 
z"/>
<path fill="#010101" opacity="1.000000" stroke="none" 
	d="
M359.998413,103.001091 
	C359.747009,102.650436 359.497192,102.298698 359.247406,101.946960 
	C359.372345,101.859169 359.497253,101.771378 359.622192,101.683578 
	C359.743439,101.959824 359.864655,102.236076 359.994781,102.754440 
	C360.003662,102.996552 360.000000,103.000000 359.998413,103.001091 
z"/>
<path fill="#010101" opacity="1.000000" stroke="none" 
	d="
M573.000000,449.000610 
	C572.876038,448.856934 572.752075,448.712616 572.628113,448.568329 
	C572.716431,448.617462 572.804810,448.666595 572.946533,448.857239 
	C573.000000,448.998779 573.000000,449.000000 573.000000,449.000610 
z"/>
<path fill="#010101" opacity="1.000000" stroke="none" 
	d="
M95.997543,366.996796 
	C95.906502,367.031250 95.817924,367.068909 95.867889,367.055725 
	C96.006424,367.004913 96.000000,367.000000 95.997543,366.996796 
z"/>
<path fill="#010101" opacity="1.000000" stroke="none" 
	d="
M371.997559,650.001709 
	C371.873993,649.857056 371.752869,649.710632 371.631744,649.564209 
	C371.720367,649.613525 371.808960,649.662903 371.950623,649.853638 
	C372.003662,649.995117 372.000000,650.000000 371.997559,650.001709 
z"/>
<path fill="#010101" opacity="1.000000" stroke="none" 
	d="
M376.452728,269.526489 
	C376.421997,269.473053 376.483459,269.579926 376.452728,269.526489 
z"/>
<path fill="#010101" opacity="1.000000" stroke="none" 
	d="
M340.004578,215.995728 
	C339.497467,215.691635 338.985748,215.391830 338.474060,215.092041 
	C338.655518,214.882202 338.836975,214.672363 339.018433,214.462524 
	C339.322754,214.787643 339.627075,215.112762 339.961365,215.723541 
	C339.991333,216.009232 340.000000,216.000000 340.004578,215.995728 
z"/>
</svg>